<?xml version="1.0" encoding="UTF-8" standalone="no"?>
<svg
   xmlns:dc="http://purl.org/dc/elements/1.1/"
   xmlns:cc="http://creativecommons.org/ns#"
   xmlns:rdf="http://www.w3.org/1999/02/22-rdf-syntax-ns#"
   xmlns:svg="http://www.w3.org/2000/svg"
   xmlns="http://www.w3.org/2000/svg"
   xmlns:sodipodi="http://sodipodi.sourceforge.net/DTD/sodipodi-0.dtd"
   xmlns:inkscape="http://www.inkscape.org/namespaces/inkscape"
   sodipodi:docname="development.svg"
   inkscape:version="1.0 (4035a4fb49, 2020-05-01)"
   id="svg8"
   version="1.1"
   viewBox="0 0 512 512"
   height="512mm"
   width="512mm">
  <defs
     id="defs2" />
  <sodipodi:namedview
     inkscape:window-maximized="1"
     inkscape:window-y="-8"
     inkscape:window-x="-8"
     inkscape:window-height="1089"
     inkscape:window-width="2048"
     showgrid="false"
     inkscape:document-rotation="0"
     inkscape:current-layer="layer1"
     inkscape:document-units="mm"
     inkscape:cy="1047.6828"
     inkscape:cx="571.32931"
     inkscape:zoom="0.35"
     inkscape:pageshadow="2"
     inkscape:pageopacity="0.0"
     borderopacity="1.0"
     bordercolor="#666666"
     pagecolor="#ffffff"
     id="base" />
  <metadata
     id="metadata5">
    <rdf:RDF>
      <cc:Work
         rdf:about="">
        <dc:format>image/svg+xml</dc:format>
        <dc:type
           rdf:resource="http://purl.org/dc/dcmitype/StillImage" />
        <dc:title></dc:title>
      </cc:Work>
    </rdf:RDF>
  </metadata>
  <g
     id="layer1"
     inkscape:groupmode="layer"
     inkscape:label="Layer 1">
    <path
       id="path847"
       d="m 160.75486,493.01929 c -11.10232,-2.65293 -20.95631,-10.72605 -26.30834,-21.55367 l -3.74879,-7.58413 -0.27681,-80.29853 -0.27645,-80.29851 h -7.78785 c -11.17241,0 -12.17118,-0.97805 -15.01447,-14.70287 l -2.232,-10.77409 -8.803273,-3.72067 -8.803274,-3.72064 -9.300147,6.02467 c -5.868537,3.80169 -10.349856,6.02468 -12.145043,6.02468 -2.307459,0 -5.059621,-2.21466 -14.567246,-11.72227 -9.507625,-9.50763 -11.722275,-12.25979 -11.722275,-14.56726 0,-1.79518 2.222988,-6.2765 6.024671,-12.14504 l 6.024671,-9.30014 -3.717324,-8.79546 -3.717363,-8.79547 -8.021438,-1.67665 c -17.985298,-3.75931 -17.462134,-3.05737 -17.462134,-23.42968 0,-20.37232 -0.523164,-19.67041 17.462134,-23.42969 l 8.021438,-1.67665 3.69509,-8.7428 3.695089,-8.7428 -6.002436,-9.35922 c -3.755297,-5.85548 -6.002398,-10.4219 -6.002398,-12.19775 0,-2.29924 2.227045,-5.06555 11.722275,-14.56078 9.507625,-9.50763 12.259787,-11.72232 14.567246,-11.72232 1.795187,0 6.276506,2.22303 12.145043,6.02471 l 9.300147,6.02467 8.803274,-3.72067 8.803273,-3.72062 2.232,-10.774135 c 1.82911,-8.829339 2.68276,-11.128649 4.72929,-12.738476 5.19329,-4.085028 12.1636,-0.757987 12.17096,5.809385 0.008,6.951332 -5.03811,27.347826 -7.32115,29.593616 -1.16802,1.14891 -5.70116,3.32392 -10.07371,4.83339 -4.37251,1.50944 -9.778095,3.81154 -12.012389,5.11579 -6.237444,3.64103 -9.352354,3.14502 -18.76041,-2.98748 l -8.221141,-5.35878 -4.992164,4.99216 -4.992202,4.9922 5.359307,8.30761 c 6.116278,9.48099 6.597639,12.4892 2.987997,18.67289 -1.304249,2.23429 -3.611482,7.63988 -5.127153,12.01243 -1.51567,4.37254 -3.58966,8.88469 -4.608871,10.02711 -1.27529,1.42936 -4.944351,2.76717 -11.766745,4.29047 l -9.913679,2.21345 v 6.82229 6.82229 l 9.913641,2.21344 c 6.822432,1.52327 10.491493,2.86113 11.766783,4.29049 1.019211,1.14237 3.093201,5.65456 4.608871,10.02711 1.515671,4.3725 3.822904,9.77809 5.127115,12.01238 3.60968,6.18373 3.128319,9.19194 -2.987959,18.67294 l -5.359307,8.30759 4.992202,4.99217 4.992164,4.9922 8.221141,-5.35882 c 9.408018,-6.13246 12.522928,-6.6285 18.76041,-2.98747 2.234257,1.30425 7.639839,3.61149 12.012389,5.12716 10.72661,3.71822 11.74495,4.79745 13.80524,14.63045 2.54036,12.12435 2.29536,11.65884 6.1369,11.65884 h 3.41117 V 263.7279 240.07152 l -7.27468,-1.22237 c -10.48409,-1.76164 -18.56135,-5.9358 -26.127941,-13.50239 -19.312983,-19.31299 -18.810176,-49.36664 1.138086,-68.02726 5.283815,-4.94277 7.122755,-6.08004 9.831245,-6.08004 4.21434,0 7.34502,2.56737 8.13824,6.67393 0.56624,2.93136 0.0913,3.71248 -5.74024,9.44069 -8.85514,8.69826 -11.219162,13.88803 -11.219162,24.62948 0,6.95179 0.431219,9.32645 2.436252,13.41572 4.65364,9.4914 14.3476,16.67128 24.36213,18.04393 l 4.40417,0.60365 0.27456,-88.37999 0.27455,-88.379946 3.74877,-7.584286 c 4.42738,-8.957117 10.14129,-14.504333 19.60452,-19.032677 l 6.45942,-3.090947 h 96.94294 96.94294 l 7.58518,3.7488 c 11.09304,5.482501 18.04979,14.006973 21.2705,26.063938 1.05306,3.942231 1.32972,21.034967 1.33907,82.730378 l 0.0112,77.76155 h 7.81603 c 11.20445,0 12.19797,0.97106 15.04268,14.70288 l 2.232,10.77408 8.80327,3.72068 8.80328,3.72062 9.30014,-6.02467 c 5.86853,-3.80165 10.34985,-6.02467 12.14504,-6.02467 2.30747,0 5.05963,2.21468 14.56726,11.72231 9.50761,9.50759 11.72227,12.25975 11.72227,14.56721 0,1.79519 -2.223,6.27651 -6.02468,12.14508 l -6.02467,9.3001 3.71732,8.79547 3.71737,8.79546 8.02144,1.67665 c 17.98529,3.75932 17.46213,3.05737 17.46213,23.42968 0,20.37231 0.52316,19.6704 -17.46213,23.42967 l -8.02144,1.67666 -3.69509,8.7428 -3.69508,8.7428 6.00242,9.35927 c 3.69074,5.75473 6.00241,10.43305 6.00241,12.14748 0,2.21825 -2.2823,5.10154 -11.16366,14.10328 -6.14002,6.22325 -12.21006,11.57763 -13.48899,11.89866 -2.86252,0.71843 -5.49212,-0.43747 -15.37816,-6.75967 l -7.7337,-4.94575 -8.7224,3.68649 -8.72241,3.68645 -2.31779,10.81762 c -1.88025,8.77534 -2.78555,11.18547 -4.79528,12.76635 -5.17443,4.07023 -12.1438,0.72929 -12.15112,-5.82497 -0.008,-6.95133 5.03809,-27.34783 7.32114,-29.59362 1.16803,-1.1489 5.70117,-3.32392 10.07372,-4.83336 4.37251,-1.50947 9.77813,-3.81156 12.01239,-5.11581 6.18373,-3.60968 9.19194,-3.12832 18.67293,2.98796 l 8.3076,5.3593 4.9927,-4.99268 4.99268,-4.99269 -5.3593,-8.3076 c -3.39901,-5.26886 -5.35935,-9.38143 -5.35935,-11.24329 0,-1.61464 1.51654,-5.97885 3.37002,-9.69823 1.85351,-3.7194 4.17058,-9.33211 5.14904,-12.47276 0.97851,-3.14063 2.70412,-6.55677 3.83474,-7.59141 1.17512,-1.07533 6.2062,-2.8147 11.74485,-4.06047 l 9.68914,-2.17931 v -6.8077 -6.80775 l -9.91367,-2.21345 c -6.8224,-1.52325 -10.49146,-2.86108 -11.76675,-4.29047 -1.01921,-1.14237 -3.09319,-5.65457 -4.60887,-10.02708 -1.51567,-4.37255 -3.82291,-9.77812 -5.12715,-12.01242 -3.60968,-6.1837 -3.12828,-9.1919 2.988,-18.67293 l 5.3593,-8.30761 -4.99268,-4.99265 -4.9927,-4.99269 -8.3076,5.3593 c -9.47371,6.11155 -12.33599,6.56809 -18.58328,2.964 -2.28361,-1.31743 -7.72953,-3.62463 -12.10204,-5.12712 -10.71884,-3.68325 -11.74371,-4.76763 -13.80524,-14.60652 -2.54041,-12.12435 -2.29536,-11.65884 -6.1369,-11.65884 h -3.41118 v 23.6737 23.67369 l 7.12603,1.10301 c 25.58498,3.96018 43.54072,28.11325 39.86546,53.6247 -1.49802,10.39812 -6.53199,20.21778 -14.03168,27.37129 -8.31268,7.92895 -14.38956,8.84771 -17.58969,2.65936 -2.14993,-4.15748 -1.18016,-6.45762 5.41966,-12.8548 8.07643,-7.82846 10.46464,-13.27149 10.46464,-23.85019 0,-6.95179 -0.43122,-9.32644 -2.43621,-13.41571 -4.65852,-9.50136 -14.34745,-16.67125 -24.38812,-18.04746 l -4.43009,-0.60723 -0.0112,85.84672 c -0.008,68.44006 -0.28094,86.85417 -1.33907,90.81548 -3.22053,12.05629 -10.17734,20.58122 -21.2697,26.06394 l -7.58441,3.7488 -94.95623,0.16075 c -53.24343,0.0902 -96.595,-0.23061 -98.68682,-0.73061 z M 353.1108,476.60577 c 5.62166,-1.91549 12.67922,-9.30064 14.41058,-15.07947 1.70844,-5.70224 1.70844,-406.182255 0,-411.884479 -0.64977,-2.168715 -3.11457,-6.093254 -5.47735,-8.721245 -7.56727,-8.416638 -1.27311,-7.938282 -104.45548,-7.938282 -67.33878,0 -91.9065,0.306108 -94.82801,1.181354 -2.16872,0.649776 -6.09329,3.114572 -8.72125,5.477356 -8.67948,7.803557 -7.93833,-12.357742 -7.93833,215.943066 0,228.35318 -0.7454,208.13565 7.96255,215.96482 2.64133,2.37476 6.2904,4.79393 8.10906,5.37591 2.22998,0.71359 33.09971,1.09117 94.80384,1.15957 81.20098,0.0902 92.01898,-0.0763 96.13439,-1.4786 z M 196.06712,277.16848 c -16.51763,-16.51762 -18.16589,-18.47604 -18.16589,-21.58441 0,-3.10834 1.64826,-5.06676 18.16589,-21.58443 16.14128,-16.14128 18.52758,-18.16588 21.41097,-18.16588 4.32891,0 8.12352,3.77257 8.12352,8.07631 0,2.78304 -1.8312,5.04482 -14.11672,17.43595 l -14.11668,14.23805 14.25234,14.37486 c 14.1828,14.30474 14.24939,14.39323 13.65005,18.1361 -0.72084,4.50138 -3.72675,7.23934 -7.94778,7.23934 -2.68204,0 -5.48712,-2.39731 -21.2557,-18.16589 z m 47.87382,15.72667 c -1.34154,-1.34158 -2.42693,-3.46571 -2.41191,-4.72035 0.015,-1.25463 3.79008,-17.25916 8.38903,-35.56567 8.98721,-35.77426 9.41159,-36.77537 15.58913,-36.77537 3.54204,0 7.80615,3.93039 7.7675,7.15956 -0.015,1.25463 -3.79007,17.25916 -8.38903,35.56567 -8.98724,35.77431 -9.41158,36.77538 -15.58912,36.77538 -1.77138,0 -3.87403,-0.95766 -5.3556,-2.43922 z m 47.70039,0 c -1.5791,-1.57911 -2.43922,-3.56682 -2.43922,-5.6371 0,-2.78303 1.83121,-5.04481 14.11669,-17.43591 l 14.11672,-14.23807 -14.11672,-14.23805 c -12.28548,-12.39113 -14.11669,-14.65291 -14.11669,-17.43595 0,-4.30374 3.79462,-8.07631 8.12353,-8.07631 2.88339,0 5.26969,2.0246 21.41097,18.16588 16.51765,16.51767 18.16591,18.47609 18.16591,21.58443 0,3.10837 -1.64826,5.06679 -18.16591,21.58441 -16.14128,16.14129 -18.52758,18.16589 -21.41097,18.16589 -2.12038,0 -4.09048,-0.84538 -5.68431,-2.43922 z M 228.04083,62.343306 c -1.53757,-1.537568 -2.43922,-3.574637 -2.43922,-5.510822 0,-1.936222 0.90165,-3.973291 2.43922,-5.510859 l 2.43922,-2.439217 h 26.92179 26.92184 l 2.43921,2.439217 c 1.53757,1.537568 2.43922,3.574637 2.43922,5.510859 0,1.936185 -0.90165,3.973254 -2.43922,5.510822 l -2.43921,2.439217 H 257.40184 230.48005 Z M 84.939688,427.05247 c -4.926435,-4.92644 -1.384024,-13.79212 5.510859,-13.79212 3.701174,0 7.95004,3.95931 7.95004,7.40827 0,7.50489 -8.370253,11.4745 -13.460899,6.38385 z m 0,-31.80026 c -4.926435,-4.92644 -1.384024,-13.79214 5.510859,-13.79214 3.701174,0 7.95004,3.95932 7.95004,7.40832 0,7.50486 -8.370253,11.47446 -13.460899,6.38382 z m 0,-31.80023 c -4.926435,-4.92643 -1.384024,-13.79218 5.510859,-13.79218 3.701174,0 7.95004,3.95936 7.95004,7.40833 0,7.50489 -8.370253,11.47449 -13.460899,6.38385 z M 420.69157,160.17634 c -7.47588,-3.01207 -4.50817,-15.89317 3.66162,-15.89317 7.33393,0 10.43523,8.59907 5.04524,13.98906 -2.99179,2.99179 -4.94641,3.41925 -8.70686,1.90411 z m 0,-31.80023 c -7.47588,-3.01211 -4.50817,-15.8932 3.66162,-15.8932 7.33393,0 10.43523,8.59909 5.04524,13.98905 -2.99179,2.99179 -4.94641,3.41925 -8.70686,1.90415 z m 0,-31.80027 c -7.47588,-3.01207 -4.50817,-15.893162 3.66162,-15.893162 7.33393,0 10.43523,8.599062 5.04524,13.98902 -2.99179,2.991792 -4.94641,3.419254 -8.70686,1.904142 z"
       style="fill:#333;stroke-width:0.993757" />
  </g>
</svg>
