<svg width="496" height="381" viewBox="0 0 496 381" fill="none" xmlns="http://www.w3.org/2000/svg">
<g opacity="0.9">
<path d="M434.307 309.751L53.318 298.835C35.5874 298.322 21.0073 284.767 19.2489 267.11L0.858817 85.4077C-1.19266 64.8197 14.7796 46.8693 35.4409 46.5762L459.511 40.7148C480.905 40.4218 497.683 59.1049 495.045 80.3523L470.354 278.833C468.083 296.856 452.477 310.264 434.307 309.751Z" fill="#E9F0F9"/>
<mask id="mask0_81_435" style="mask-type:alpha" maskUnits="userSpaceOnUse" x="0" y="40" width="496" height="270">
<path d="M434.307 309.751L53.318 298.835C35.5874 298.322 21.0073 284.767 19.2489 267.11L0.858817 85.4077C-1.19266 64.8197 14.7796 46.8693 35.4409 46.5762L459.511 40.7148C480.905 40.4218 497.683 59.1049 495.045 80.3523L470.354 278.833C468.083 296.856 452.477 310.264 434.307 309.751Z" fill="#EAF9F3"/>
</mask>
<g mask="url(#mask0_81_435)">
<path d="M320.23 318.397L321.549 348.07C321.549 354.151 316.64 359.06 310.559 359.06H6.06135C-0.0198184 359.06 -4.92871 354.151 -4.92871 348.07V175.38C-4.92871 169.299 -0.0198184 164.39 6.06135 164.39H310.486C316.567 164.39 321.476 169.299 321.476 175.38V292.167" stroke="#9AC7FA" stroke-width="1.8" stroke-miterlimit="10" stroke-linecap="round" stroke-linejoin="round"/>
<path d="M388.442 292.9V122.847C388.442 116.766 393.351 111.857 399.432 111.857H490.283C496.365 111.857 501.273 116.766 501.273 122.847V375.106C501.273 381.187 496.365 386.096 490.283 386.096H399.432C393.351 386.096 388.442 381.187 388.442 375.106V320.229" stroke="#9AC7FA" stroke-width="1.8" stroke-miterlimit="10" stroke-linecap="round" stroke-linejoin="round"/>
<path d="M63.2831 112.883H-2.58398V106.362H63.2831C64.0158 106.362 64.6019 106.948 64.6019 107.681V111.491C64.6752 112.223 64.089 112.883 63.2831 112.883Z" stroke="#9AC7FA" stroke-width="1.8" stroke-miterlimit="10" stroke-linecap="round" stroke-linejoin="round"/>
<path d="M53.2452 164.39H38.372C36.7601 164.39 35.4413 163.217 35.2215 161.605L34.0492 151.055C33.8294 149.223 35.2947 147.538 37.1997 147.538H54.4174C56.3224 147.538 57.7145 149.15 57.5679 151.055L56.3957 161.605C56.2491 163.217 54.857 164.39 53.2452 164.39Z" stroke="#9AC7FA" stroke-width="1.8" stroke-miterlimit="10" stroke-linecap="round" stroke-linejoin="round"/>
<path d="M44.0869 147.611C44.0869 147.611 38.2255 147.025 37.0532 139.112C37.0532 139.112 42.3285 140.651 44.0136 144.388C44.0136 144.388 44.7463 136.035 48.7027 135.229C48.7027 135.229 50.4611 141.457 47.6769 144.534C47.6769 144.534 49.8017 141.017 55.2234 141.091C55.2234 141.091 53.8314 146.073 48.4829 147.538" fill="#9AC7FA"/>
<path d="M453.357 111.857H438.484C436.872 111.857 435.553 110.685 435.333 109.073L434.161 98.5224C433.941 96.6908 435.407 95.0056 437.312 95.0056H454.529C456.434 95.0056 457.826 96.6175 457.68 98.5224L456.507 109.073C456.288 110.685 454.969 111.857 453.357 111.857Z" stroke="#9AC7FA" stroke-width="1.8" stroke-miterlimit="10" stroke-linecap="round" stroke-linejoin="round"/>
<path d="M444.125 95.0789C444.125 95.0789 438.264 94.4928 437.092 86.5799C437.092 86.5799 442.367 88.1185 444.052 91.8552C444.052 91.8552 444.785 83.5027 448.741 82.6968C448.741 82.6968 450.499 88.9245 447.715 92.0017C447.715 92.0017 449.84 88.4849 455.262 88.5581C455.262 88.5581 453.87 93.5403 448.521 95.0056" fill="#9AC7FA"/>
<path d="M308.215 200.803H242.128C240.443 200.803 239.051 199.411 239.051 197.726V177.651C239.051 175.966 240.443 174.574 242.128 174.574H308.215C309.9 174.574 311.292 175.966 311.292 177.651V197.726C311.292 199.411 309.9 200.803 308.215 200.803Z" stroke="#9AC7FA" stroke-width="1.8" stroke-miterlimit="10" stroke-linecap="round" stroke-linejoin="round"/>
<path d="M282.717 181.681H267.478C266.892 181.681 266.379 181.168 266.379 180.582C266.379 179.996 266.892 179.483 267.478 179.483H282.717C283.304 179.483 283.817 179.996 283.817 180.582C283.817 181.168 283.377 181.681 282.717 181.681Z" fill="#9AC7FA"/>
<path d="M308.215 234.433H242.128C240.443 234.433 239.051 233.041 239.051 231.356V211.281C239.051 209.595 240.443 208.203 242.128 208.203H308.215C309.9 208.203 311.292 209.595 311.292 211.281V231.356C311.292 233.041 309.9 234.433 308.215 234.433Z" stroke="#9AC7FA" stroke-width="1.8" stroke-miterlimit="10" stroke-linecap="round" stroke-linejoin="round"/>
<path d="M282.717 215.237H267.478C266.892 215.237 266.379 214.724 266.379 214.138C266.379 213.552 266.892 213.039 267.478 213.039H282.717C283.304 213.039 283.817 213.552 283.817 214.138C283.817 214.724 283.377 215.237 282.717 215.237Z" fill="#9AC7FA"/>
<path d="M223.958 200.803H157.871C156.186 200.803 154.794 199.411 154.794 197.726V177.651C154.794 175.966 156.186 174.574 157.871 174.574H223.958C225.643 174.574 227.035 175.966 227.035 177.651V197.726C227.035 199.411 225.643 200.803 223.958 200.803Z" stroke="#9AC7FA" stroke-width="1.8" stroke-miterlimit="10" stroke-linecap="round" stroke-linejoin="round"/>
<path d="M198.534 181.681H183.295C182.708 181.681 182.196 181.168 182.196 180.582C182.196 179.996 182.708 179.483 183.295 179.483H198.534C199.12 179.483 199.633 179.996 199.633 180.582C199.633 181.168 199.12 181.681 198.534 181.681Z" fill="#9AC7FA"/>
<path d="M223.958 234.433H157.871C156.186 234.433 154.794 233.041 154.794 231.356V211.281C154.794 209.595 156.186 208.203 157.871 208.203H223.958C225.643 208.203 227.035 209.595 227.035 211.281V231.356C227.035 233.041 225.643 234.433 223.958 234.433Z" stroke="#9AC7FA" stroke-width="1.8" stroke-miterlimit="10" stroke-linecap="round" stroke-linejoin="round"/>
<path d="M198.534 215.237H183.295C182.708 215.237 182.196 214.724 182.196 214.138C182.196 213.552 182.708 213.039 183.295 213.039H198.534C199.12 213.039 199.633 213.552 199.633 214.138C199.633 214.724 199.12 215.237 198.534 215.237Z" fill="#9AC7FA"/>
<path d="M308.215 267.256H242.128C240.443 267.256 239.051 265.864 239.051 264.179V244.104C239.051 242.419 240.443 241.027 242.128 241.027H308.215C309.9 241.027 311.292 242.419 311.292 244.104V264.179C311.292 265.864 309.9 267.256 308.215 267.256Z" stroke="#9AC7FA" stroke-width="1.8" stroke-miterlimit="10" stroke-linecap="round" stroke-linejoin="round"/>
<path d="M282.717 248.134H267.478C266.892 248.134 266.379 247.621 266.379 247.035C266.379 246.449 266.892 245.936 267.478 245.936H282.717C283.304 245.936 283.817 246.449 283.817 247.035C283.817 247.621 283.377 248.134 282.717 248.134Z" fill="#9AC7FA"/>
<path d="M223.958 267.256H157.871C156.186 267.256 154.794 265.864 154.794 264.179V244.104C154.794 242.419 156.186 241.027 157.871 241.027H223.958C225.643 241.027 227.035 242.419 227.035 244.104V264.179C227.035 265.864 225.643 267.256 223.958 267.256Z" stroke="#9AC7FA" stroke-width="1.8" stroke-miterlimit="10" stroke-linecap="round" stroke-linejoin="round"/>
<path d="M198.534 248.134H183.295C182.708 248.134 182.196 247.621 182.196 247.035C182.196 246.449 182.708 245.936 183.295 245.936H198.534C199.12 245.936 199.633 246.449 199.633 247.035C199.633 247.621 199.12 248.134 198.534 248.134Z" fill="#9AC7FA"/>
<path d="M521.202 188.641H404.048C402.216 188.641 400.678 187.102 400.678 185.271V126.877C400.678 125.045 402.216 123.507 404.048 123.507H521.202C523.034 123.507 524.572 125.045 524.572 126.877V185.271C524.572 187.176 523.107 188.641 521.202 188.641Z" stroke="#9AC7FA" stroke-width="1.8" stroke-miterlimit="10" stroke-linecap="round" stroke-linejoin="round"/>
<path d="M521.202 261.175H404.048C402.216 261.175 400.678 259.637 400.678 257.805V199.411C400.678 197.58 402.216 196.041 404.048 196.041H521.202C523.034 196.041 524.572 197.58 524.572 199.411V257.805C524.572 259.637 523.107 261.175 521.202 261.175Z" stroke="#9AC7FA" stroke-width="1.8" stroke-miterlimit="10" stroke-linecap="round" stroke-linejoin="round"/>
<path d="M430.424 151.788H423.171V188.641H430.424V151.788Z" stroke="#9AC7FA" stroke-width="1.8" stroke-miterlimit="10" stroke-linecap="round" stroke-linejoin="round"/>
<path d="M437.898 161.898H430.351V188.714H437.898V161.898Z" stroke="#9AC7FA" stroke-width="1.8" stroke-miterlimit="10" stroke-linecap="round" stroke-linejoin="round"/>
<path d="M36.7603 69.5088H29.5068V106.362H36.7603V69.5088Z" stroke="#9AC7FA" stroke-width="1.8" stroke-miterlimit="10" stroke-linecap="round" stroke-linejoin="round"/>
<path d="M44.2333 79.5464H36.6868V106.362H44.2333V79.5464Z" stroke="#9AC7FA" stroke-width="1.8" stroke-miterlimit="10" stroke-linecap="round" stroke-linejoin="round"/>
<path d="M21.9602 84.8215H14.7068V106.362H21.9602V84.8215Z" stroke="#9AC7FA" stroke-width="1.8" stroke-miterlimit="10" stroke-linecap="round" stroke-linejoin="round"/>
<path d="M29.507 63.2078H21.9604V106.289H29.507V63.2078Z" stroke="#9AC7FA" stroke-width="1.8" stroke-miterlimit="10" stroke-linecap="round" stroke-linejoin="round"/>
<path d="M425.882 229.158L426.688 218.241C426.761 217.508 426.175 216.922 425.442 216.922H422.365H419.214C418.482 216.922 417.969 217.508 417.969 218.241L418.775 229.158C418.775 229.158 412.181 233.407 412.254 236.924C412.327 239.635 413.939 252.603 414.672 258.318C414.892 259.93 416.21 261.102 417.822 261.102H422.365H426.907C428.519 261.102 429.838 259.93 430.058 258.318C430.791 252.603 432.402 239.635 432.476 236.924C432.476 233.407 425.882 229.158 425.882 229.158Z" fill="#9AC7FA"/>
<path d="M461.196 156.697L462.002 145.78C462.075 145.047 461.489 144.461 460.757 144.461H457.606H454.456C453.723 144.461 453.21 145.047 453.21 145.78L454.016 156.697C454.016 156.697 447.422 160.946 447.495 164.463C447.569 167.174 449.18 180.142 449.913 185.857C450.133 187.469 451.452 188.641 453.064 188.641H457.606H462.149C463.761 188.641 465.079 187.469 465.299 185.857C466.032 180.142 467.644 167.174 467.717 164.463C467.79 160.946 461.196 156.697 461.196 156.697Z" fill="#9AC7FA"/>
<path d="M5.03564 288.724L520.103 294.365" stroke="#9AC7FA" stroke-width="1.8" stroke-miterlimit="10" stroke-linecap="round" stroke-linejoin="round"/>
</g>
<path d="M276.196 27.9664C273.339 34.0476 266.745 38.0773 262.129 36.8318C258.099 35.7327 257.367 30.9704 259.931 26.208C262.422 21.6655 267.404 18.0021 271.727 17.9289C276.49 17.7823 278.834 22.1783 276.196 27.9664Z" fill="#F8AB5D"/>
<path d="M274.804 26.7208C271.947 32.802 265.353 36.8317 260.737 35.5861C256.707 34.4871 255.975 29.7248 258.539 24.9624C261.03 20.4199 266.012 16.7565 270.335 16.6832C275.097 16.5367 277.442 20.9327 274.804 26.7208Z" fill="#4380C4"/>
<path d="M272.46 26.4277C270.335 30.9702 265.353 34.0475 261.836 33.2415C258.686 32.5088 257.953 28.8455 259.931 25.1089C261.836 21.5188 265.866 18.6614 269.163 18.6614C272.899 18.7346 274.511 22.1049 272.46 26.4277Z" fill="#F8AB5D"/>
<path d="M262.935 30.3108L263.228 29.798C263.301 29.5782 263.301 29.4316 263.155 29.3584C262.789 29.2851 262.495 29.0653 262.349 28.8455C262.276 28.7722 262.276 28.5524 262.422 28.3326L262.495 28.2594C262.642 28.0396 262.935 27.9663 263.008 28.1128C263.228 28.3326 263.521 28.5524 263.961 28.6257C264.693 28.7722 265.426 28.3326 265.792 27.5999C266.159 26.9405 265.939 26.4277 265.353 25.9881C264.547 25.4019 264.254 24.8158 264.767 23.7901C265.206 22.9109 266.012 22.2514 266.965 22.1049C267.111 22.1049 267.258 21.9584 267.404 21.7386L267.697 21.2257C267.771 21.0059 267.99 20.8594 268.21 20.8594C268.357 20.8594 268.43 21.0059 268.357 21.2257L268.137 21.6653C268.064 21.8851 268.064 22.0317 268.284 22.0317C268.577 22.1049 268.796 22.1782 268.943 22.3247C269.089 22.398 269.016 22.6178 268.87 22.8376L268.796 22.9109C268.65 23.1307 268.357 23.2039 268.284 23.0574C268.064 22.9109 267.844 22.7643 267.404 22.7643C266.598 22.6911 266.086 23.2039 265.792 23.7168C265.499 24.3029 265.719 24.6693 266.379 25.1821C267.185 25.7683 267.478 26.5009 266.891 27.5999C266.452 28.5524 265.499 29.2851 264.4 29.4316C264.254 29.4316 264.034 29.5782 263.961 29.798L263.668 30.3841C263.594 30.6039 263.301 30.7504 263.155 30.7504C262.862 30.7504 262.789 30.5306 262.935 30.3108Z" fill="#4380C4"/>
<path d="M409.762 158.895L381.335 157.136C379.356 156.99 377.891 155.304 378.038 153.326L382.36 95.0057C382.507 93.0275 384.119 91.4156 386.17 91.2691L415.257 89.5107C417.382 89.3641 419.141 91.1958 418.994 93.3206L414.158 155.158C413.865 157.429 411.96 159.041 409.762 158.895Z" fill="#303131"/>
<path d="M407.784 158.895L379.356 157.136C377.378 156.99 375.913 155.304 376.059 153.326L380.382 95.0057C380.529 93.0275 382.141 91.4156 384.192 91.2691L413.279 89.5107C415.404 89.3641 417.162 91.1958 417.016 93.3206L412.18 155.158C411.887 157.429 409.982 159.041 407.784 158.895Z" fill="#303131"/>
<path d="M399.065 96.3245L393.643 96.6176C393.204 96.6176 392.911 96.3245 392.911 95.8849C392.911 95.4453 393.277 95.079 393.717 95.079L399.138 94.7859C399.578 94.7859 399.871 95.079 399.871 95.5186C399.871 95.9582 399.505 96.3245 399.065 96.3245Z" fill="#63737A"/>
<path d="M402.216 96.178H402.069C401.629 96.178 401.336 95.885 401.336 95.4454C401.336 95.0058 401.776 94.6394 402.216 94.5662H402.362C402.802 94.5662 403.095 94.8592 403.095 95.2988C403.022 95.7384 402.655 96.178 402.216 96.178Z" fill="#63737A"/>
<path d="M393.717 106.069L386.463 106.289C385.731 106.289 385.144 105.703 385.218 104.897C385.291 104.091 385.95 103.505 386.683 103.432L393.936 103.138C394.669 103.138 395.255 103.725 395.182 104.531C395.182 105.336 394.523 105.996 393.717 106.069Z" fill="#63737A"/>
<path d="M391.812 131.273L384.632 131.2C383.899 131.2 383.386 130.54 383.386 129.808C383.459 129.075 384.119 128.416 384.851 128.416L392.031 128.489C392.764 128.489 393.35 129.148 393.277 129.881C393.204 130.687 392.544 131.273 391.812 131.273Z" fill="#63737A"/>
<path d="M390.273 151.641L383.093 151.275C382.36 151.275 381.847 150.615 381.847 149.809C381.921 149.077 382.507 148.417 383.239 148.491L390.42 148.784C391.152 148.784 391.738 149.443 391.665 150.249C391.665 151.055 391.006 151.641 390.273 151.641Z" fill="#63737A"/>
<path d="M406.978 122.261L385.584 122.334C384.704 122.334 383.972 121.602 384.045 120.649L384.704 111.344C384.778 110.538 385.437 109.952 386.17 109.952L407.637 109.366C408.516 109.366 409.249 110.099 409.176 111.051L408.443 120.796C408.443 121.602 407.784 122.261 406.978 122.261Z" fill="#9AC7FA"/>
<path d="M391.299 143.802L383.972 143.508C383.093 143.508 382.433 142.703 382.507 141.823L382.946 136.255C383.019 135.449 383.679 134.79 384.485 134.863L391.885 135.01C392.764 135.01 393.423 135.815 393.423 136.695L392.984 142.409C392.837 143.215 392.178 143.802 391.299 143.802Z" fill="#4380C4"/>
<path d="M405.219 144.241L397.38 143.948C396.5 143.948 395.841 143.142 395.914 142.263L396.354 136.475C396.427 135.669 397.086 135.009 397.892 135.083L405.805 135.229C406.685 135.229 407.344 136.035 407.344 136.914L406.904 142.849C406.758 143.655 406.025 144.314 405.219 144.241Z" fill="#F4C2C9"/>
<path d="M229.819 68.7029L206.007 69.8019C204.102 69.8752 202.783 68.3366 203.003 66.3584L206.96 26.7942C207.179 24.7427 208.865 22.911 210.769 22.6912L235.021 19.5407C237.146 19.2476 238.611 20.7863 238.391 22.911L233.922 64.7465C233.775 66.798 231.87 68.5564 229.819 68.7029Z" fill="#303131"/>
<path d="M228.061 67.897L204.249 68.996C202.344 69.0693 201.025 67.5307 201.245 65.5525L205.201 25.9882C205.421 23.9368 207.106 22.1051 209.011 21.8853L233.263 18.7348C235.387 18.4417 236.853 19.9803 236.633 22.1051L232.164 63.9406C231.944 66.0653 230.112 67.8237 228.061 67.897Z" fill="#303131"/>
<path d="M229.16 32.0693L210.623 34.0475C210.037 34.1208 209.524 33.6079 209.597 33.0218L210.037 28.4792C210.11 28.0396 210.403 27.6733 210.843 27.6733L229.453 25.4753C230.039 25.402 230.552 25.9149 230.478 26.501L229.966 31.2634C229.966 31.703 229.599 32.0693 229.16 32.0693Z" fill="#F4C2C9"/>
<path d="M211.942 44.6711L209.524 44.8909C208.938 44.9642 208.425 44.4513 208.498 43.8652L208.791 41.2276C208.865 40.788 209.158 40.4216 209.597 40.4216L212.015 40.2018C212.601 40.1286 213.114 40.6414 213.041 41.2276L212.748 43.8652C212.748 44.3048 212.381 44.5979 211.942 44.6711Z" fill="#9AC7FA"/>
<path d="M227.987 43.2791L225.35 43.4989C224.763 43.5722 224.251 43.0593 224.324 42.4732L224.617 39.689C224.69 39.2494 224.983 38.8831 225.423 38.8831L228.06 38.59C228.647 38.5167 229.16 39.0296 229.086 39.6158L228.793 42.3999C228.793 42.8395 228.427 43.2058 227.987 43.2791Z" fill="#9AC7FA"/>
<path d="M219.855 43.9385L217.364 44.1583C216.777 44.2315 216.265 43.7187 216.338 43.1325L216.631 40.4216C216.704 39.982 216.997 39.6157 217.437 39.6157L219.928 39.3959C220.514 39.3226 221.027 39.8355 220.954 40.4216L220.661 43.1325C220.661 43.5721 220.294 43.9385 219.855 43.9385Z" fill="#9AC7FA"/>
<path d="M210.989 53.6831L208.572 53.8296C207.986 53.9029 207.546 53.39 207.546 52.8039L207.839 50.1663C207.912 49.7267 208.279 49.3603 208.718 49.3603L211.136 49.1405C211.722 49.0673 212.235 49.5801 212.162 50.1663L211.869 52.8039C211.795 53.3168 211.429 53.6831 210.989 53.6831Z" fill="#9AC7FA"/>
<path d="M227.035 52.584L224.397 52.8038C223.811 52.877 223.372 52.3642 223.372 51.778L223.665 49.0672C223.738 48.6276 224.104 48.2612 224.544 48.2612L227.181 48.0414C227.768 47.9682 228.28 48.481 228.207 49.0672L227.914 51.8513C227.841 52.1444 227.475 52.5107 227.035 52.584Z" fill="#9AC7FA"/>
<path d="M218.902 53.1702L216.411 53.3167C215.825 53.39 215.385 52.8771 215.385 52.291L215.679 49.5801C215.752 49.1405 216.118 48.7742 216.558 48.7742L219.049 48.5544C219.635 48.4811 220.148 48.994 220.075 49.5801L219.782 52.291C219.708 52.7306 219.342 53.0969 218.902 53.1702Z" fill="#9AC7FA"/>
<path d="M210.037 62.6948L207.693 62.8413C207.106 62.8413 206.667 62.4017 206.74 61.8156L207.033 59.178C207.106 58.7384 207.473 58.372 207.912 58.372L210.257 58.2255C210.843 58.1522 211.283 58.6651 211.209 59.2512L210.916 61.8889C210.916 62.3285 210.477 62.6948 210.037 62.6948Z" fill="#9AC7FA"/>
<path d="M226.009 61.8157L223.372 61.9622C222.786 61.9622 222.346 61.5226 222.419 60.9365L222.712 58.2256C222.786 57.786 223.152 57.4196 223.592 57.4196L226.229 57.2731C226.815 57.1998 227.255 57.7127 227.182 58.2989L226.889 61.083C226.815 61.4493 226.449 61.8157 226.009 61.8157Z" fill="#4380C4"/>
<path d="M217.95 62.2553L215.459 62.4019C214.873 62.4019 214.433 61.9623 214.507 61.3761L214.8 58.7385C214.873 58.2989 215.239 57.9326 215.679 57.9326L218.17 57.7861C218.756 57.7128 219.196 58.2257 219.122 58.8118L218.829 61.5227C218.756 61.889 218.39 62.2553 217.95 62.2553Z" fill="#4380C4"/>
<path d="M252.898 68.2634L367.634 56.3941C369.759 56.1743 371.517 57.9327 371.371 60.0574L361.553 171.716C361.333 174.501 358.915 176.552 356.205 176.406L244.765 170.398C242.86 170.324 241.468 168.639 241.542 166.808L248.282 73.099C248.502 70.5346 250.407 68.5564 252.898 68.2634Z" fill="#F8AB5D"/>
<path d="M248.722 67.0178L364.777 55.002C366.902 54.7822 368.733 56.5406 368.513 58.7386L358.622 171.643C358.403 174.427 355.985 176.552 353.201 176.332L240.443 170.251C238.538 170.178 237.072 168.493 237.219 166.588L244.033 71.7801C244.326 69.2891 246.231 67.3108 248.722 67.0178Z" fill="#4380C4"/>
<path d="M260.737 91.3425L255.462 91.6356L254.803 101.453L260.005 101.307L260.737 91.3425Z" fill="#263A79"/>
<path d="M254.803 101.453L254.437 106.289L259.639 106.142L260.005 101.307L254.803 101.453Z" fill="#9AC7FA"/>
<path d="M272.094 78.0078L266.819 78.3741L265.939 91.0494L271.141 90.8295L272.094 78.0078Z" fill="#263A79"/>
<path d="M265.94 91.0494L264.841 105.996L270.043 105.849L271.142 90.8296L265.94 91.0494Z" fill="#9AC7FA"/>
<path d="M276.929 82.6237L276.343 90.5365L281.545 90.2434L282.131 82.2573L276.929 82.6237Z" fill="#263A79"/>
<path d="M276.343 90.5365L275.244 105.776L280.446 105.63L281.545 90.2434L276.343 90.5365Z" fill="#9AC7FA"/>
<path d="M291.949 89.6572L286.747 89.9503L286.381 95.5186L291.583 95.2255L291.949 89.6572Z" fill="#263A79"/>
<path d="M286.381 95.5186L285.648 105.483L290.85 105.336L291.583 95.2256L286.381 95.5186Z" fill="#9AC7FA"/>
<path d="M303.012 80.792L302.353 89.1444L301.987 94.6395L296.785 94.9325L297.151 89.3642L297.81 81.1583L303.012 80.792Z" fill="#263A79"/>
<path d="M296.785 94.9325L295.979 105.19L301.181 105.117L301.987 94.6394L296.785 94.9325Z" fill="#9AC7FA"/>
<path d="M344.848 74.7841L335.543 89.5108L327.41 78.4475C330.634 75.8099 334.517 74.1247 338.547 73.8316C340.892 73.6851 343.016 74.0514 344.848 74.7841Z" fill="#303131"/>
<path d="M352.102 88.3386L335.543 89.5109L344.848 74.7842C349.977 76.8357 352.981 81.9644 352.102 88.3386Z" fill="#F4C2C9"/>
<path d="M352.102 88.3386C352.102 88.5584 352.028 88.7782 352.028 88.998C350.49 97.7168 342.357 104.97 333.785 105.63L335.543 89.5109L352.102 88.3386Z" fill="#9AC7FA"/>
<path d="M335.543 89.5108L333.785 105.63C333.345 105.703 332.832 105.703 332.393 105.703C323.674 105.703 318.325 98.5959 320.157 90.0237C321.11 85.5544 323.82 81.4514 327.411 78.5208L335.543 89.5108Z" fill="white"/>
<path d="M349.757 118.158L345.947 155.305L250.187 153.546L250.334 150.689L271.068 136.402C272.021 135.742 273.266 135.742 274.219 136.475L281.985 142.19C283.157 143.069 284.916 142.849 285.795 141.604L293.488 131.346C294.587 129.881 296.785 129.881 297.884 131.42L304.698 140.871C305.577 142.117 307.336 142.41 308.581 141.457C309.534 140.724 310.852 140.724 311.805 141.384L316.64 144.827C317.886 145.707 319.644 145.414 320.524 144.095L331.367 127.39C332.246 126.071 334.005 125.778 335.25 126.657L338.401 128.928C339.646 129.808 341.331 129.588 342.211 128.342L349.757 118.158Z" fill="#263A79"/>
<path d="M280.08 129.954H275.904C275.684 129.954 275.538 130.028 275.391 130.174L274.439 131.127C274.146 131.42 273.633 131.42 273.413 131.127L272.68 130.174C272.534 130.028 272.387 129.954 272.167 129.954H268.138C267.771 129.954 267.478 129.661 267.552 129.295L268.138 121.382C268.138 121.016 268.504 120.649 268.87 120.649L280.813 120.21C281.179 120.21 281.472 120.503 281.472 120.869L280.813 129.148C280.813 129.588 280.52 129.954 280.08 129.954Z" fill="white"/>
<path d="M319.205 133.911L315.029 133.837C314.809 133.837 314.663 133.911 314.516 134.057L313.564 135.01C313.271 135.303 312.831 135.303 312.538 134.936L311.805 133.984C311.659 133.837 311.512 133.764 311.292 133.764L307.336 133.691C306.97 133.691 306.75 133.398 306.75 132.958L307.336 124.972C307.336 124.606 307.702 124.239 307.995 124.239L319.938 123.946C320.304 123.946 320.597 124.239 320.597 124.679L319.938 133.178C319.938 133.618 319.571 133.984 319.205 133.911Z" fill="#F4C2C9"/>
<path d="M118.526 345.286C118.232 346.238 117.573 350.048 117.06 353.565C108.341 355.03 100.868 351.587 100.868 351.587C101.234 347.924 101.601 344.114 101.601 344.114C101.601 342.062 119.112 343.528 118.526 345.286Z" fill="#303131"/>
<path d="M117.06 353.492C116.621 356.569 116.181 359.28 116.181 359.28C116.181 359.28 114.203 363.896 109.221 363.896C104.165 363.896 100.209 359.72 100.282 357.961C100.356 357.155 100.575 354.371 100.868 351.514C100.868 351.514 108.268 354.957 117.06 353.492Z" fill="#F4C2C9"/>
<path d="M100.355 356.569C100.355 356.569 101.747 358.108 102.627 358.84C103.432 359.573 105.924 357.302 109.44 357.741C112.957 358.181 114.056 359.573 114.056 359.573C114.056 359.573 115.521 359.28 116.327 358.621C116.327 358.621 116.327 361.112 117.426 363.969C118.525 366.826 124.094 375.179 124.094 376.791C124.094 378.403 123.727 379.648 122.555 380.161C121.383 380.674 113.617 380.747 107.096 380.894C100.575 381.04 95.5196 381.407 94.7869 378.842C94.0543 376.278 97.0582 368.292 98.3038 363.383C99.5493 358.401 99.3295 356.642 100.355 356.569Z" fill="#303131"/>
<path d="M101.454 370.123C101.454 370.123 109.294 365.947 116.767 370.123" stroke="white" stroke-width="1.8" stroke-miterlimit="10" stroke-linecap="round" stroke-linejoin="round"/>
<path d="M102.919 366.021C102.919 366.021 109.001 364.042 115.375 366.021" stroke="white" stroke-width="1.8" stroke-miterlimit="10" stroke-linecap="round" stroke-linejoin="round"/>
<path d="M194.577 350.341C186.224 353.199 177.579 351.44 177.652 351.514C177.359 347.411 176.993 343.088 176.993 343.088C178.092 340.524 193.844 339.351 193.991 340.45C193.991 341.036 194.284 345.872 194.577 350.341Z" fill="#303131"/>
<path d="M195.016 358.108C195.016 358.108 193.917 361.551 189.155 363.31C184.393 365.068 178.311 360.306 178.238 358.914C178.165 358.328 177.945 354.957 177.652 351.514C177.652 351.441 186.224 353.199 194.577 350.342C194.797 354.371 195.016 358.108 195.016 358.108Z" fill="#F4C2C9"/>
<path d="M178.092 357.888C177.579 357.888 177.212 358.621 176.919 363.236C176.626 367.852 175.161 378.036 176.919 379.575C178.678 381.114 213.773 380.674 217.802 380.381C221.832 380.088 224.03 377.45 222.785 375.692C221.539 373.933 212.894 370.71 205.274 365.581C197.654 360.452 195.822 359.353 194.943 358.108C194.943 358.108 195.383 353.931 193.111 354.591C190.84 355.25 189.302 360.672 186.371 361.405C183.513 362.064 183.074 357.595 178.092 357.888Z" fill="#303131"/>
<path d="M206.959 365.727C206.959 365.727 204.981 365.141 200.511 369.904" stroke="white" stroke-width="1.8" stroke-miterlimit="10" stroke-linecap="round" stroke-linejoin="round"/>
<path d="M202.123 362.577C202.123 362.577 198.606 362.431 194.577 367.632" stroke="white" stroke-width="1.8" stroke-miterlimit="10" stroke-linecap="round" stroke-linejoin="round"/>
<path d="M103.652 352.54L104.092 349.609" stroke="#63737A" stroke-width="1.8" stroke-miterlimit="10" stroke-linecap="round" stroke-linejoin="round"/>
<path d="M108.708 353.638L109.147 350.708" stroke="#63737A" stroke-width="1.8" stroke-miterlimit="10" stroke-linecap="round" stroke-linejoin="round"/>
<path d="M114.276 353.858L114.789 351.221" stroke="#63737A" stroke-width="1.8" stroke-miterlimit="10" stroke-linecap="round" stroke-linejoin="round"/>
<path d="M180.949 351.88L180.729 348.803" stroke="#63737A" stroke-width="1.8" stroke-miterlimit="10" stroke-linecap="round" stroke-linejoin="round"/>
<path d="M187.03 351.807L186.81 348.437" stroke="#63737A" stroke-width="1.8" stroke-miterlimit="10" stroke-linecap="round" stroke-linejoin="round"/>
<path d="M192.525 350.928L192.305 347.777" stroke="#63737A" stroke-width="1.8" stroke-miterlimit="10" stroke-linecap="round" stroke-linejoin="round"/>
<path d="M98.7435 181.241C98.7435 181.241 96.9118 188.788 96.692 198.825C96.4722 208.863 104.312 240.294 107.169 250.918C110.027 261.615 109.44 263.227 109.001 265.278C108.561 267.33 104.165 283.595 102.7 300.447C101.235 317.298 95.9594 330.852 96.5455 336.054C97.3514 343.088 100.355 345.139 101.601 345.945C102.846 346.751 113.104 350.048 120.064 348.436C120.064 348.436 127.464 343.747 128.856 337.153C130.322 330.559 129.442 322.573 134.205 301.033C138.894 279.492 141.165 270.627 141.825 262.055C142.191 256.926 142.264 242.273 142.337 231.063C142.411 223.443 142.411 217.362 142.484 216.776C142.704 215.31 146.294 216.995 148.199 212.306C149.005 210.182 149.444 206.152 149.518 201.829C149.664 196.334 149.298 190.326 148.565 187.029C147.393 180.948 99.9158 174.794 98.7435 181.241Z" fill="#303131"/>
<path d="M199.266 337.373C198.021 340.45 195.749 343.967 193.698 344.773C191.646 345.579 182.415 346.825 177.726 346.385C177.726 346.385 169.886 344.114 169.08 338.179C168.274 332.244 169.666 325.65 167.029 312.316C164.391 298.981 162.12 275.389 161.46 268.429C160.874 261.468 146.441 240.734 139.7 228.205C132.959 215.676 125.706 192.744 131.714 187.395C137.722 181.974 159.189 179.629 165.563 183.952C165.563 183.952 172.963 201.976 180.363 223.516C187.177 243.298 188.569 249.965 189.522 255.68C189.595 256.193 189.668 256.706 189.815 257.219C190.108 258.977 190.474 263.52 190.987 269.381C192.159 284.254 193.551 307.334 194.137 312.609C194.943 319.936 200.512 334.296 199.266 337.373Z" fill="#303131"/>
<path d="M138.381 217.875C138.381 217.875 146.147 215.017 153.034 213.918" stroke="#63737A" stroke-width="1.8" stroke-miterlimit="10" stroke-linecap="round" stroke-linejoin="round"/>
<path d="M137.044 268.879C138.102 263.561 134.713 258.404 129.474 257.362C124.236 256.319 119.131 259.785 118.072 265.103C117.014 270.421 120.403 275.578 125.642 276.62C130.88 277.663 135.985 274.197 137.044 268.879Z" stroke="#63737A" stroke-width="1.8" stroke-miterlimit="10" stroke-linecap="round" stroke-linejoin="round"/>
<path d="M190.987 269.308C189.228 271.506 186.517 272.898 183.514 272.898C178.165 272.898 173.842 268.575 173.842 263.154C173.842 257.805 178.165 253.409 183.44 253.409C185.712 253.409 187.836 254.215 189.521 255.607" stroke="#63737A" stroke-width="1.8" stroke-miterlimit="10" stroke-linecap="round" stroke-linejoin="round"/>
<path d="M100.428 215.896C100.428 215.896 108.561 209.302 108.634 197.14C108.634 197.14 103.506 196.847 100.428 196.114" stroke="#63737A" stroke-width="1.8" stroke-miterlimit="10" stroke-linecap="round" stroke-linejoin="round"/>
<path d="M142.337 231.063C142.411 223.443 142.411 217.362 142.484 216.776C142.704 215.31 146.294 216.995 148.199 212.306C149.005 210.182 149.444 206.152 149.518 201.829" stroke="#63737A" stroke-width="1.8" stroke-miterlimit="10" stroke-linecap="round" stroke-linejoin="round"/>
<path d="M163.952 97.3503C163.952 97.3503 169.96 97.6434 179.631 116.986C189.302 136.255 192.746 143.289 192.746 143.289C192.746 143.289 199.12 141.75 209.524 140.065C219.928 138.38 234.581 136.255 234.581 136.255C234.581 136.255 238.538 136.328 240.223 141.97C241.395 146.073 239.564 149.004 238.465 150.322C238.098 150.762 237.659 151.128 237.072 151.348C232.603 153.253 206.52 164.243 197.655 166.148C187.91 168.2 183.148 167.907 174.502 156.037C165.857 144.168 159.043 134.936 155.893 130.174C152.742 125.192 150.471 98.083 163.952 97.3503Z" fill="#263A79"/>
<path d="M180.437 162.778C180.437 162.778 179.924 158.895 187.47 158.895C195.017 158.895 198.9 164.536 197.068 166.148" stroke="#303131" stroke-width="1.8" stroke-miterlimit="10" stroke-linecap="round" stroke-linejoin="round"/>
<path d="M192.746 143.216C192.746 143.216 189.595 144.681 188.936 146.879" stroke="#303131" stroke-width="1.8" stroke-miterlimit="10" stroke-linecap="round" stroke-linejoin="round"/>
<path d="M234.948 136.841C234.948 136.841 238.172 135.669 238.978 135.229C239.784 134.79 241.542 131.713 243.007 129.808C244.473 127.903 248.649 126.804 249.821 127.023C250.993 127.243 251.433 127.976 251.433 127.976C251.433 127.976 255.096 126.657 257.587 125.631C260.079 124.606 264.694 122.334 265.354 124.166C265.72 125.265 262.863 126.877 260.884 127.976C258.467 129.368 256.855 130.394 256.855 130.394C256.855 130.394 258.027 130.98 258.32 132.518C258.613 134.057 259.419 135.742 257.954 138.087C257.514 138.746 259.199 140.578 257.881 142.263C255.609 144.974 250.114 146.366 247.184 147.245C244.18 148.124 237.366 148.564 237.366 148.564C237.366 148.564 235.168 148.051 234.215 143.289C233.263 138.526 234.948 136.841 234.948 136.841Z" fill="#F4C2C9"/>
<path d="M251.433 127.976C251.433 127.976 251.946 129.295 252.532 131.273C253.118 133.251 253.558 134.79 252.019 134.863C250.481 134.936 249.089 132.592 248.502 131.419" stroke="#E26E85" stroke-width="1.8" stroke-miterlimit="10" stroke-linecap="round" stroke-linejoin="round"/>
<path d="M249.528 133.104C249.528 133.104 251.213 136.475 247.33 139.405" stroke="#E26E85" stroke-width="1.8" stroke-miterlimit="10" stroke-linecap="round" stroke-linejoin="round"/>
<path d="M256.928 130.394L252.825 132.299" stroke="#E26E85" stroke-width="1.8" stroke-miterlimit="10" stroke-linecap="round" stroke-linejoin="round"/>
<path d="M250.773 134.423C250.773 134.423 250.041 135.596 250.773 136.255C251.506 136.914 255.536 135.449 258.466 133.764" stroke="#E26E85" stroke-width="1.8" stroke-miterlimit="10" stroke-linecap="round" stroke-linejoin="round"/>
<path d="M251.433 136.402C251.433 136.402 250.187 137.061 250.774 138.38C251.36 139.699 254.51 139.186 257.954 138.087" stroke="#E26E85" stroke-width="1.8" stroke-miterlimit="10" stroke-linecap="round" stroke-linejoin="round"/>
<path d="M252.092 139.186C252.092 139.186 250.261 139.406 251.213 141.237C251.799 142.336 255.316 141.97 256.049 142.263" stroke="#E26E85" stroke-width="1.8" stroke-miterlimit="10" stroke-linecap="round" stroke-linejoin="round"/>
<path d="M230.698 137.501C230.112 138.526 229.379 140.505 229.892 144.021C230.478 148.491 233.043 150.689 234.435 151.568" stroke="#303131" stroke-width="1.8" stroke-miterlimit="10" stroke-linecap="round" stroke-linejoin="round"/>
<path d="M140.213 70.5346C140.213 70.5346 137.868 82.3306 136.55 85.5544C135.231 88.7781 142.411 93.8336 149.591 94.1266C156.771 94.4197 156.039 90.2435 156.039 90.2435L158.163 78.5207C158.163 78.594 142.777 67.8238 140.213 70.5346Z" fill="#F4C2C9"/>
<path d="M143.436 74.0515C142.411 82.9901 148.858 87.3128 156.038 90.6831C156.038 90.4633 156.038 90.2435 156.038 90.2435L157.211 84.0158C151.862 82.2574 147.173 78.4475 143.436 74.0515Z" fill="#E26E85"/>
<path d="M109.441 94.1999C111.052 89.4375 117.207 86.5801 122.189 87.0197C127.318 87.4593 137.136 87.6059 146.587 90.5365C162.706 95.5187 166.589 98.4494 167.541 99.3286C172.89 104.457 172.377 112.077 169.3 133.105C167.322 146.952 165.636 150.469 166.076 157.283C166.516 164.023 167.761 176.186 168.567 178.677C169.373 181.168 167.322 185.491 165.563 187.029C163.805 188.568 149.591 191.792 136.403 191.499C123.288 191.205 102.48 187.615 99.1832 185.417C95.8862 183.219 93.5416 179.409 94.2743 176.112C94.9337 172.815 95.7396 168.126 97.7911 161.166C99.8426 154.206 99.9891 145.121 103.213 130.54C105.704 119.77 106.07 104.164 109.441 94.1999Z" fill="#4380C4"/>
<path d="M129.589 147.905C133.692 148.784 143.07 150.542 154.353 150.762C155.452 150.762 156.405 151.641 156.551 152.74C156.771 154.645 157.65 157.722 160.288 160.653C160.654 161.019 160.874 161.532 160.874 162.118C160.947 165.196 161.094 175.599 159.042 177.211C156.698 178.97 131.787 180.582 116.327 176.259C115.302 175.966 114.569 175.087 114.569 174.061C114.642 171.057 114.789 164.756 115.302 160.8C115.448 159.994 115.961 159.334 116.694 158.968C119.112 157.869 124.68 154.938 126.658 149.443C127.244 148.271 128.417 147.611 129.589 147.905Z" stroke="#F8AB5D" stroke-width="1.8" stroke-miterlimit="10" stroke-linecap="round" stroke-linejoin="round"/>
<path d="M135.597 83.7959C135.89 83.0633 136.843 82.9167 137.429 83.4296C138.821 84.8949 141.825 87.093 147.246 88.1187C155.526 89.6573 156.332 88.4118 156.332 88.4118C156.332 88.4118 157.65 88.8514 157.797 89.9504C157.943 91.0494 157.577 93.8335 157.211 95.2256C156.771 96.6177 150.617 96.7642 145.708 95.7385C141.165 94.786 137.136 92.8078 134.205 89.8038C133.692 89.291 133.546 88.5583 133.839 87.8989C134.278 86.7999 135.011 85.188 135.597 83.7959Z" fill="#263A79"/>
<path d="M171.718 56.614C171.718 58.0793 171.718 62.0357 170.253 65.8456C168.787 69.6555 166.37 80.2792 161.607 83.7228C156.845 87.1664 146.441 86.5069 141.898 77.6416C137.356 68.8496 138.821 59.4714 141.166 51.9982C143.51 44.5249 153.181 41.814 161.607 44.8913C170.106 47.9685 171.718 53.317 171.718 56.614Z" fill="#F4C2C9"/>
<path d="M140.946 61.7426C140.946 61.7426 141.459 62.3287 142.191 63.8673C142.851 65.4059 144.243 64.5267 144.756 61.7426C145.268 58.9584 146.441 56.9802 147.32 57.1267C148.199 57.3465 151.276 57.7129 153.108 54.4159C154.94 51.0456 155.746 51.5584 155.746 51.5584C155.746 51.5584 157.211 48.0416 161.021 53.0971C164.831 58.1525 167.249 62.1089 171.791 61.303C176.334 60.497 180.363 53.0971 176.92 45.9902C173.403 38.8832 162.633 37.1981 154.573 39.3228C146.514 41.4476 142.338 39.6892 137.502 43.7921C132.666 47.8951 133.839 52.2178 133.546 57.0535C133.253 61.8891 130.762 64.4534 134.059 68.7762C137.356 73.099 136.476 77.1287 138.308 79.5465C138.308 79.5465 140.286 73.1722 140.066 68.5564C139.847 63.9406 140.946 61.7426 140.946 61.7426Z" fill="#303131"/>
<path d="M162.706 65.7723C162.56 69.6554 159.409 72.7326 155.673 72.7326C151.863 72.7326 148.785 69.5822 148.859 65.6257C148.859 61.596 152.156 58.299 156.039 58.3723C159.922 58.4456 162.853 61.8158 162.706 65.7723Z" stroke="#303131" stroke-width="1.8" stroke-miterlimit="10" stroke-linecap="round" stroke-linejoin="round"/>
<path d="M173.994 70.102C175.012 66.6056 173.853 63.1933 171.406 62.4805C168.958 61.7678 166.149 64.0244 165.131 67.5209C164.112 71.0174 165.271 74.4296 167.719 75.1424C170.166 75.8552 172.976 73.5985 173.994 70.102Z" stroke="#303131" stroke-width="1.8" stroke-miterlimit="10" stroke-linecap="round" stroke-linejoin="round"/>
<path d="M165.27 67.3108C165.27 67.3108 165.197 65.8455 162.633 66.6514" stroke="#303131" stroke-width="1.8" stroke-miterlimit="10" stroke-linecap="round" stroke-linejoin="round"/>
<path d="M149.445 62.6219L140.946 61.0833" stroke="#303131" stroke-width="1.8" stroke-miterlimit="10" stroke-linecap="round" stroke-linejoin="round"/>
<path d="M141.679 63.0614C141.679 63.0614 141.019 59.1782 137.869 59.105C134.718 59.105 132.813 68.703 140.653 70.0218" fill="#F4C2C9"/>
<path d="M137.355 62.1089C138.015 61.9624 138.821 62.1089 139.333 62.8416C139.553 63.2079 139.627 63.6475 139.627 64.0871C139.627 64.3069 139.553 64.4535 139.553 64.6733C139.553 64.8198 139.48 64.9663 139.48 65.1129C139.407 65.4059 139.407 65.6257 139.407 65.8455C139.407 66.0653 139.407 66.2119 139.553 66.3584C139.773 66.7248 140.359 67.0178 140.945 67.3841C140.286 67.5307 139.553 67.6772 138.821 67.1643C138.454 66.9445 138.234 66.4317 138.161 66.0653C138.088 65.6257 138.161 65.2594 138.234 64.8931C138.308 64.7465 138.308 64.5267 138.381 64.3802C138.381 64.2337 138.454 64.1604 138.454 64.0139C138.527 63.7941 138.527 63.5743 138.454 63.4277C138.381 62.9149 137.941 62.4753 137.355 62.1089Z" fill="#303131"/>
<path d="M164.244 66.1387C164.317 67.0179 164.464 67.8238 164.757 68.5565C164.903 68.9228 165.05 69.2159 165.27 69.5089C165.416 69.7288 165.856 70.2416 165.929 70.7545C166.222 71.8535 165.856 72.8792 165.343 73.6119C165.05 73.9782 164.757 74.3446 164.317 74.5644C163.951 74.7842 163.438 75.004 162.999 74.9307C163.731 74.4178 164.098 73.7584 164.391 73.0258C164.684 72.3664 164.757 71.6337 164.61 71.0476C164.537 70.7545 164.391 70.608 164.098 70.0951C163.878 69.6555 163.731 69.2159 163.658 68.703C163.658 67.8238 163.804 66.8713 164.244 66.1387Z" fill="#303131"/>
<path d="M156.918 77.7882C156.918 77.7882 153.694 77.8615 152.082 74.5645" stroke="#303131" stroke-width="1.8" stroke-miterlimit="10" stroke-linecap="round" stroke-linejoin="round"/>
<path d="M153.914 67.1643C153.328 67.0177 152.961 66.4316 153.108 65.8455L153.401 64.7464C153.548 64.1603 154.134 63.794 154.72 63.9405C155.306 64.087 155.672 64.6732 155.526 65.2593L155.233 66.3583C155.086 66.9445 154.5 67.3108 153.914 67.1643Z" fill="#303131"/>
<path d="M165.563 70.1684C164.977 70.0219 164.611 69.4357 164.757 68.8496L165.05 67.7506C165.197 67.1645 165.783 66.7981 166.369 66.9447C166.955 67.0912 167.322 67.6773 167.175 68.2635L166.882 69.3625C166.735 69.9486 166.149 70.315 165.563 70.1684Z" fill="#303131"/>
<path d="M156.844 62.1089C156.038 62.2555 155.672 61.1565 154.5 61.2297C152.668 61.303 151.642 61.6693 151.496 60.8634C151.423 60.2773 152.815 59.1782 154.573 59.105C157.138 59.105 158.31 61.8891 156.844 62.1089Z" fill="#303131"/>
<path d="M165.563 64.3068C166.076 64.7464 166.809 63.9405 167.541 64.4534C168.64 65.1128 169.007 65.6989 169.373 65.186C169.666 64.7464 169.373 63.4276 168.347 62.7682C166.662 61.596 164.464 63.5009 165.563 64.3068Z" fill="#303131"/>
<path d="M73.2466 186.809C73.2466 186.809 72.2941 188.861 72.2941 190.106C72.2941 191.352 73.3199 202.855 73.0268 205.126C72.6605 207.397 72.0011 211.867 71.5615 212.526C71.1219 213.185 68.4842 211.134 68.411 204.247C68.3377 197.36 65.9932 187.908 67.9714 186.809C69.9496 185.71 72.6605 185.93 73.2466 186.809Z" fill="#F4C2C9"/>
<path d="M25.2569 220.805L42.841 193.11C43.647 191.865 45.3321 191.425 46.6509 192.304L88.0468 218.607C89.2923 219.413 89.7319 221.098 88.8527 222.417L71.2686 250.112C70.4627 251.358 68.7776 251.797 67.4587 250.918L26.0629 224.615C24.8173 223.809 24.451 222.124 25.2569 220.805Z" fill="#303131"/>
<path d="M73.8329 241.979L82.625 228.205C82.9913 227.546 83.9438 227.546 84.3834 228.132L85.7755 229.964C86.0685 230.33 86.0685 230.77 85.8487 231.209L77.9359 243.665C77.7161 244.031 77.2765 244.251 76.8369 244.104L74.5656 243.665C73.8329 243.445 73.4666 242.639 73.8329 241.979Z" fill="#263A79"/>
<path d="M71.2685 186.077C71.2685 186.077 70.829 198.825 70.7557 201.536C70.6824 204.174 70.8289 209.595 70.1695 212.16C69.5101 214.724 68.4112 221.172 66.4329 221.611C64.4547 222.051 66.5795 213.698 66.5795 212.087C66.5795 210.475 65.7003 206.591 65.7003 206.591C65.7003 206.591 64.9676 210.621 64.4547 212.38C63.9419 214.138 60.5716 219.633 59.2528 219.413C57.8607 219.193 59.5458 215.09 60.5716 212.599C61.524 210.328 61.8904 205.566 61.8904 205.566C61.8904 205.566 60.7914 208.35 59.9122 209.815C59.033 211.281 56.029 215.823 54.7835 215.603C53.4647 215.384 55.5894 210.768 56.835 208.643C58.0805 206.518 58.1537 204.98 58.1537 204.98C58.1537 204.98 56.1755 206.958 54.93 207.91C53.6845 208.863 49.2884 210.988 48.9221 209.889C48.629 208.789 50.534 207.617 52.3657 205.932C54.1973 204.32 56.1755 200.877 56.6151 200.291C57.0548 199.778 55.8092 194.576 57.7874 191.132C59.7656 187.689 60.9379 186.297 61.4508 183.952C61.8904 181.681 71.0487 184.392 71.2685 186.077Z" fill="#F4C2C9"/>
<path d="M117.061 87.0196C117.061 87.0196 108.708 86.2137 98.6707 98.8156C88.6331 111.418 78.742 121.968 75.9579 126.95C73.1737 132.006 67.0193 150.615 63.9421 165.342C60.8649 180.069 60.5718 182.706 60.6451 184.318C60.7183 185.784 68.1183 187.835 72.9539 187.762C73.8331 187.762 74.6391 187.249 74.9321 186.443C76.8371 181.974 83.5044 166.734 86.142 161.166C89.2192 154.645 92.8093 144.974 93.2489 144.314C93.6885 143.655 113.69 123.287 117.427 117.938C121.164 112.663 124.754 103.944 123.948 96.3246C123.069 88.0454 118.819 86.9464 117.061 87.0196Z" fill="#263A79"/>
<path d="M76.9832 125.265C76.9832 125.265 79.2545 122.114 82.1119 124.972C85.1159 127.976 83.7971 134.497 79.6209 138.6C76.1773 141.97 71.2684 140.578 71.708 137.427" stroke="#303131" stroke-width="1.8" stroke-miterlimit="10" stroke-linecap="round" stroke-linejoin="round"/>
<path d="M61.6707 180.802C63.6489 181.754 69.5835 184.392 75.3716 183.659" stroke="#303131" stroke-width="1.8" stroke-miterlimit="10" stroke-linecap="round" stroke-linejoin="round"/>
<path d="M253.484 201.609L265.793 161.312C266.16 160.213 267.185 159.481 268.358 159.481L341.185 161.532C342.431 161.532 343.237 162.704 342.943 163.877L328.656 213.039C328.29 214.284 327.045 215.09 325.799 214.871L255.096 203.954C253.851 203.807 253.118 202.708 253.484 201.609Z" fill="#303131"/>
<path d="M252.825 203.661L210.476 207.617L283.084 225.494C284.842 225.934 286.674 225.934 288.432 225.494L327.85 215.31L252.825 203.661Z" fill="#63737A"/>
<path d="M283.157 225.494L210.55 207.617C210.55 209.009 211.502 210.182 212.821 210.548L281.252 228.718C284.11 229.451 287.187 229.451 290.044 228.572L325.945 218.021C327.191 217.655 327.997 216.556 327.997 215.237L288.579 225.421C286.674 225.934 284.842 225.934 283.157 225.494Z" fill="#303131"/>
<path d="M301.327 168.419L296.199 185.857C296.052 186.296 295.613 186.589 295.173 186.589L266.379 184.098C265.72 184.025 265.353 183.439 265.5 182.853L270.335 166.881C270.482 166.441 270.848 166.148 271.288 166.148L300.375 167.174C301.034 167.174 301.474 167.833 301.327 168.419Z" fill="white"/>
<path d="M295.832 171.57L292.609 182.047L270.189 180.435L270.995 178.091L279.274 174.427L283.963 178.091L295.832 171.57Z" fill="#F4C2C9"/>
<path d="M279.054 192.964L276.929 199.558C276.783 199.997 276.343 200.29 275.83 200.217L261.983 198.386C261.397 198.312 260.957 197.726 261.177 197.14L263.008 190.986C263.155 190.546 263.595 190.253 264.034 190.253L278.175 191.718C278.834 191.718 279.274 192.304 279.054 192.964Z" fill="#4380C4"/>
<path d="M300.741 195.162L298.396 202.415C298.25 202.855 297.81 203.148 297.297 203.075L284.109 201.316C283.523 201.243 283.084 200.657 283.303 199.997L285.501 193.184C285.648 192.744 286.088 192.451 286.527 192.524L299.862 193.843C300.521 193.916 300.961 194.502 300.741 195.162Z" fill="#263A79"/>
<path d="M325.652 197.653L323.161 205.712C323.014 206.152 322.574 206.445 322.062 206.372L306.163 204.247C305.576 204.174 305.137 203.587 305.357 202.928L307.774 195.382C307.921 194.942 308.361 194.649 308.8 194.722L324.699 196.334C325.432 196.407 325.871 197.067 325.652 197.653Z" fill="#F4C2C9"/>
<path d="M317.08 171.936C316.567 174.134 314.296 175.819 312.098 175.673C309.973 175.526 308.874 173.694 309.46 171.643C310.046 169.665 312.098 168.199 314.076 168.199C316.127 168.199 317.519 169.885 317.08 171.936Z" fill="#4380C4"/>
<path d="M322.282 169.518L332.979 169.885" stroke="#63737A" stroke-width="1.8" stroke-miterlimit="10" stroke-linecap="round" stroke-linejoin="round"/>
<path d="M305.577 183.439L328.509 185.051" stroke="#63737A" stroke-width="1.8" stroke-miterlimit="10" stroke-linecap="round" stroke-linejoin="round"/>
<path d="M321.036 173.841L331.733 174.281" stroke="#63737A" stroke-width="1.8" stroke-miterlimit="10" stroke-linecap="round" stroke-linejoin="round"/>
<path d="M379.722 64.3803L324.039 68.703C322.647 68.7763 321.475 67.6773 321.548 66.212L323.893 34.0477C324.039 32.1428 325.505 30.5309 327.41 30.3111L383.972 22.6181C385.437 22.3983 386.683 23.6438 386.61 25.1091L383.459 60.7169C383.313 62.6219 381.701 64.1605 379.722 64.3803Z" fill="#263A79"/>
<path d="M377.891 63.2079L322.208 67.5307C320.816 67.6039 319.643 66.5049 319.717 65.0396L322.061 32.8753C322.208 30.9704 323.673 29.3585 325.578 29.1387L382.14 21.4457C383.605 21.2259 384.851 22.4714 384.778 23.9368L381.627 59.5446C381.481 61.5228 379.869 63.0614 377.891 63.2079Z" fill="#9AC7FA"/>
<path d="M340.817 41.6672C340.67 43.8652 338.765 45.8434 336.641 46.0632C334.516 46.283 332.977 44.6712 333.124 42.5464C333.27 40.3484 335.102 38.3702 337.227 38.1504C339.425 37.8573 340.963 39.4692 340.817 41.6672Z" fill="#303131"/>
<path d="M339.718 55.6613L332.099 56.394C330.413 56.5405 329.168 55.2217 329.314 53.5366C329.608 49.6534 332.905 46.1366 336.714 45.697C340.524 45.2574 343.455 48.1881 343.089 52.2178C342.942 53.9029 341.477 55.5148 339.718 55.6613Z" fill="#303131"/>
<path d="M349.829 37.7109L373.568 34.9268" stroke="#63737A" stroke-width="1.8" stroke-miterlimit="10" stroke-linecap="round" stroke-linejoin="round"/>
<path d="M349.243 44.2316L372.981 41.6672" stroke="#63737A" stroke-width="1.8" stroke-miterlimit="10" stroke-linecap="round" stroke-linejoin="round"/>
<path d="M348.73 50.7524L363.017 49.3604" stroke="#63737A" stroke-width="1.8" stroke-miterlimit="10" stroke-linecap="round" stroke-linejoin="round"/>
<path d="M316.567 7.23177C313.71 4.37436 309.68 2.68922 304.698 2.10308C301.035 1.66348 297.811 2.10308 294.953 3.42189C291.437 4.9605 288.799 7.67137 286.821 11.6278L283.524 13.0199L285.429 14.9981L294.001 16.5367C294.514 14.7783 295.539 13.1664 297.005 11.6278C298.47 10.1625 300.448 9.57633 302.939 9.94266C305.504 10.309 307.116 11.2615 307.775 12.8001C308.434 14.3387 308.508 16.0238 307.995 17.709C307.555 19.1743 306.749 20.4931 305.504 21.5921C304.771 22.2515 303.965 22.7644 303.013 23.204L300.082 24.6693C297.225 26.0614 295.32 27.3802 294.367 28.699C293.708 29.6515 292.902 31.1901 292.096 33.3881L289.165 34.3406L291.07 36.3188L299.862 38.7366C300.375 36.8317 300.961 35.5129 301.474 34.7069C302.28 33.3881 303.526 32.3624 305.137 31.6297L308.141 30.2376C311.219 28.8456 313.417 27.5268 314.735 26.4278C316.933 24.5961 318.399 22.1783 319.205 19.0278C320.45 14.1921 319.571 10.2357 316.567 7.23177Z" fill="#F8AB5D"/>
<path d="M294.147 41.594L293.854 41.5207C291.29 40.788 288.579 42.3999 287.846 45.1841C287.04 47.9682 288.432 50.8989 290.997 51.7781L291.29 51.9246C293.927 52.8038 296.712 51.192 297.518 48.2613C298.323 45.3306 296.785 42.3267 294.147 41.594Z" fill="#F8AB5D"/>
<path d="M293.122 1.4437C295.979 0.198156 299.203 -0.241449 302.866 0.124887C307.849 0.711023 311.805 2.39617 314.736 5.25358C317.74 8.18426 318.619 12.214 317.3 17.1961C316.494 20.2733 315.029 22.7644 312.831 24.5961C311.585 25.6951 309.387 26.9406 306.237 28.406L303.233 29.798C301.621 30.5307 300.375 31.5565 299.569 32.8753C299.057 33.6812 298.544 35.0733 297.958 36.9049L289.165 34.4871C290.411 30.6773 291.437 28.1862 292.463 26.8674C293.415 25.5486 295.32 24.2297 298.177 22.8377L301.108 21.3723C302.06 20.9327 302.94 20.3466 303.599 19.7605C304.845 18.6615 305.724 17.4159 306.09 15.8773C306.53 14.1189 306.457 12.507 305.87 10.9684C305.284 9.4298 303.599 8.47734 301.035 8.111C298.544 7.74467 296.565 8.33079 295.1 9.79614C293.635 11.2615 292.609 12.8734 292.096 14.705L283.524 13.1664C285.575 7.23179 288.653 3.42191 293.122 1.4437ZM292.169 40.4218L292.463 40.495C295.1 41.301 296.639 44.2317 295.833 47.0891C295.027 50.0198 292.169 51.6316 289.605 50.7524L289.312 50.6059C286.748 49.7267 285.356 46.796 286.162 44.0119C286.967 41.301 289.605 39.6891 292.169 40.4218Z" fill="#4380C4"/>
<path d="M93.7615 46.6494H121.896L124.753 48.481C125.706 49.0672 126.878 48.4078 126.878 47.3088V27.4534C126.878 25.4019 125.266 23.79 123.215 23.79H93.7615C91.71 23.79 90.0981 25.4019 90.0981 27.4534V42.986C90.0981 45.0375 91.71 46.6494 93.7615 46.6494Z" fill="#F4C2C9"/>
<path d="M117.794 30.3108H99.0374" stroke="#303131" stroke-width="1.8" stroke-miterlimit="10" stroke-linecap="round" stroke-linejoin="round"/>
<path d="M117.794 35.4395H99.0374" stroke="#303131" stroke-width="1.8" stroke-miterlimit="10" stroke-linecap="round" stroke-linejoin="round"/>
<path d="M117.793 40.5681H107.023" stroke="#303131" stroke-width="1.8" stroke-miterlimit="10" stroke-linecap="round" stroke-linejoin="round"/>
</g>
</svg>
