<?xml version="1.0" encoding="iso-8859-1"?>
<!-- Generator: Adobe Illustrator 17.0.0, SVG Export Plug-In . SVG Version: 6.00 Build 0)  -->
<!DOCTYPE svg PUBLIC "-//W3C//DTD SVG 1.1//EN" "http://www.w3.org/Graphics/SVG/1.1/DTD/svg11.dtd">
<svg version="1.1" id="Layer_1" xmlns="http://www.w3.org/2000/svg" xmlns:xlink="http://www.w3.org/1999/xlink" x="0px" y="0px"
	 width="555px" height="440px" viewBox="0 0 555 440" style="enable-background:new 0 0 555 440;" xml:space="preserve">
<g>
	<path style="opacity:0.18;fill:#4CA3E9;" d="M115.371,336.529h-70.39c-4.669,0-8.455-3.785-8.455-8.455v-69.806
		c0-4.669,3.785-8.455,8.455-8.455h70.39c4.669,0,8.455,3.785,8.455,8.455v69.806C123.826,332.744,120.041,336.529,115.371,336.529z
		"/>
	<path style="opacity:0.18;fill:#4CA3E9;" d="M510.067,173.03h-70.39c-4.669,0-8.455-3.785-8.455-8.455V94.77
		c0-4.669,3.785-8.455,8.455-8.455h70.39c4.669,0,8.455,3.785,8.455,8.455v69.806C518.521,169.245,514.736,173.03,510.067,173.03z"
		/>
	<path style="opacity:0.18;fill:#4CA3E9;" d="M426.669,397.931h-70.39c-4.669,0-8.455-3.785-8.455-8.455v-69.806
		c0-4.669,3.785-8.455,8.455-8.455h70.39c4.669,0,8.455,3.785,8.455,8.455v69.806C435.123,394.146,431.338,397.931,426.669,397.931z
		"/>
	<path style="opacity:0.18;fill:#4CA3E9;" d="M198.38,148.869h-70.39c-4.669,0-8.455-3.785-8.455-8.455V70.609
		c0-4.669,3.785-8.455,8.455-8.455h70.39c4.669,0,8.455,3.785,8.455,8.455v69.806C206.835,145.084,203.05,148.869,198.38,148.869z"
		/>
	<g>
		<g>
			<path style="fill:#2F507F;" d="M452.945,355.77H106.237c-4.669,0-8.455-3.785-8.455-8.455V122.013
				c0-4.669,3.785-8.455,8.455-8.455h346.708c4.669,0,8.455,3.785,8.455,8.455v225.302
				C461.399,351.985,457.614,355.77,452.945,355.77z"/>
		</g>
		<circle style="fill:#FF8369;" cx="446.073" cy="128.136" r="3.276"/>
		<circle style="fill:#FFC27F;" cx="431.871" cy="128.136" r="3.276"/>
		<circle style="fill:#4CA3E9;" cx="417.669" cy="128.136" r="3.276"/>
		<g>
			<path style="fill:#2F507F;" d="M191.493,232.85h-70.39c-4.669,0-8.455-3.785-8.455-8.455V154.59c0-4.669,3.785-8.455,8.455-8.455
				h70.39c4.669,0,8.455,3.785,8.455,8.455v69.806C199.947,229.065,196.162,232.85,191.493,232.85z"/>
			<path style="fill:#283C5A;" d="M116.127,229.551v-73.23c0-3.724,3.019-6.743,6.742-6.743h73.814c0.951,0,1.855,0.199,2.676,0.555
				c-1.052-2.354-3.409-3.998-6.155-3.998h-73.814c-3.724,0-6.743,3.019-6.743,6.743v73.23c0,2.773,1.675,5.152,4.067,6.188
				C116.34,231.457,116.127,230.529,116.127,229.551z"/>
			<path style="fill:#4E71A4;" d="M196.129,146.81c0.7,1.063,1.11,2.334,1.11,3.701v73.23c0,3.724-3.019,6.742-6.743,6.742h-73.814
				c-1.049,0-2.039-0.247-2.924-0.674c1.206,1.831,3.277,3.041,5.633,3.041h73.814c3.724,0,6.742-3.019,6.742-6.743v-73.23
				C199.947,150.204,198.386,147.9,196.129,146.81z"/>
		</g>
		<g>
			<path style="fill:#2F507F;" d="M295.09,333.416H224.7c-4.669,0-8.455-3.785-8.455-8.455v-69.805c0-4.669,3.785-8.455,8.455-8.455
				h70.39c4.669,0,8.455,3.785,8.455,8.455v69.805C303.544,329.631,299.759,333.416,295.09,333.416z"/>
			<path style="fill:#283C5A;" d="M219.724,330.116v-73.23c0-3.724,3.019-6.743,6.743-6.743h73.814c0.951,0,1.855,0.199,2.676,0.555
				c-1.052-2.354-3.409-3.997-6.155-3.997h-73.814c-3.724,0-6.742,3.019-6.742,6.742v73.23c0,2.772,1.675,5.152,4.067,6.188
				C219.937,332.022,219.724,331.095,219.724,330.116z"/>
			<path style="fill:#4E71A4;" d="M299.726,247.375c0.7,1.063,1.11,2.334,1.11,3.701v73.23c0,3.724-3.019,6.743-6.743,6.743h-73.814
				c-1.049,0-2.039-0.247-2.924-0.674c1.206,1.831,3.277,3.041,5.633,3.041h73.814c3.724,0,6.743-3.019,6.743-6.742v-73.23
				C303.544,250.769,301.983,248.465,299.726,247.375z"/>
		</g>
		<g>
			<g>
				<path style="fill:#5788DD;" d="M192.048,333.416h-70.39c-4.669,0-8.455-3.785-8.455-8.455v-69.805
					c0-4.669,3.785-8.455,8.455-8.455h70.39c4.669,0,8.455,3.785,8.455,8.455v69.805
					C200.502,329.631,196.717,333.416,192.048,333.416z"/>
				<path style="fill:#4CA3E9;" d="M193.76,333.416c3.724,0,6.743-3.019,6.743-6.742v-73.23c0-2.75-1.649-5.111-4.01-6.16
					c-30.389,47.236-63.565,69.376-83.289,79.135v0.255c0,3.724,3.019,6.742,6.743,6.742H193.76z"/>
			</g>
		</g>
		<path style="fill:#FFFFFF;" d="M171.945,294.684l-2.447-1.413c-0.145-0.084-0.225-0.243-0.209-0.41
			c0.043-0.429,0.069-0.863,0.069-1.304c0-0.833-0.075-1.648-0.219-2.44c-0.032-0.177,0.047-0.352,0.203-0.442l2.058-1.188
			c0.84-0.485,1.128-1.559,0.643-2.399l-2.815-4.876c-0.485-0.84-1.559-1.128-2.399-0.643l-2.243,1.295
			c-0.15,0.087-0.334,0.071-0.47-0.035c-1.057-0.824-2.242-1.487-3.516-1.972c-0.165-0.063-0.275-0.217-0.275-0.394v-2.021
			c0-0.97-0.786-1.756-1.756-1.756h-5.63c-0.97,0-1.756,0.786-1.756,1.756v2.02c0,0.177-0.11,0.331-0.275,0.394
			c-1.451,0.554-2.78,1.346-3.943,2.333c-0.137,0.116-0.33,0.137-0.486,0.046l-1.256-0.725c-0.84-0.485-1.914-0.197-2.399,0.643
			l-2.815,4.876c-0.485,0.84-0.197,1.914,0.643,2.399l1.434,0.828c0.151,0.087,0.232,0.257,0.207,0.43
			c-0.088,0.611-0.143,1.233-0.143,1.869c0,1.024,0.125,2.016,0.342,2.974c0.041,0.183-0.038,0.369-0.2,0.463l-1.096,0.632
			c-0.84,0.485-1.128,1.559-0.643,2.399l2.815,4.876c0.485,0.84,1.559,1.128,2.399,0.643l1.639-0.946
			c0.144-0.083,0.322-0.073,0.457,0.024c1.23,0.879,2.611,1.556,4.099,1.987c0.182,0.053,0.309,0.216,0.309,0.406v1.656
			c0,0.97,0.787,1.756,1.756,1.756h5.63c0.97,0,1.756-0.786,1.756-1.756v-2.488c0-0.163,0.094-0.308,0.241-0.379
			c1.215-0.586,2.33-1.344,3.311-2.248c0.137-0.126,0.337-0.151,0.498-0.058l1.911,1.103c0.84,0.485,1.914,0.197,2.399-0.643
			l2.815-4.876C173.073,296.243,172.785,295.169,171.945,294.684z M156.298,298.224c-3.682,0-6.667-2.985-6.667-6.667
			c0-3.682,2.985-6.667,6.667-6.667s6.667,2.985,6.667,6.667C162.965,295.239,159.98,298.224,156.298,298.224z"/>
		<g>
			<g>
				<path style="fill:#B978BE;" d="M296.495,181.318h-73.2c-3.893,0-7.05-3.156-7.05-7.05V153.86c0-3.893,3.156-7.05,7.05-7.05h73.2
					c3.893,0,7.05,3.156,7.05,7.05v20.409C303.544,178.162,300.388,181.318,296.495,181.318z"/>
			</g>
			<g>
				<path style="fill:#C882CD;" d="M303.544,174.576v-21.024c0-2.397-1.254-4.496-3.139-5.692
					c-27.874,19.96-67.25,26.254-84.017,28.098c0.638,3.06,3.35,5.359,6.599,5.359h73.814
					C300.525,181.318,303.544,178.3,303.544,174.576z"/>
			</g>
			<path style="fill:#FFD683;" d="M303.544,151.438"/>
			<circle style="fill:#FFFFFF;" cx="233.828" cy="164.264" r="10.073"/>
			<path style="fill:#FFFFFF;" d="M292.682,159.448h-39.038c-0.534,0-0.966-0.433-0.966-0.966l0,0c0-0.534,0.433-0.966,0.966-0.966
				h39.038c0.533,0,0.966,0.433,0.966,0.966l0,0C293.648,159.016,293.216,159.448,292.682,159.448z"/>
			<path style="fill:#FFFFFF;" d="M292.682,165.996h-39.038c-0.534,0-0.966-0.432-0.966-0.966l0,0c0-0.534,0.433-0.966,0.966-0.966
				h39.038c0.533,0,0.966,0.433,0.966,0.966l0,0C293.648,165.564,293.216,165.996,292.682,165.996z"/>
			<path style="fill:#FFFFFF;" d="M282.974,172.545h-29.329c-0.534,0-0.966-0.433-0.966-0.966l0,0c0-0.534,0.433-0.966,0.966-0.966
				h29.329c0.534,0,0.966,0.433,0.966,0.966l0,0C283.94,172.112,283.508,172.545,282.974,172.545z"/>
		</g>
		<g>
			<path style="fill:#FFC27F;" d="M296.494,232.013h-73.198c-3.894,0-7.05-3.157-7.05-7.05v-20.408c0-3.894,3.157-7.05,7.05-7.05
				h73.198c3.894,0,7.05,3.157,7.05,7.05v20.408C303.544,228.857,300.388,232.013,296.494,232.013z"/>
			<path style="fill:#FFDA89;" d="M303.544,225.271v-21.024c0-2.397-1.254-4.496-3.139-5.692
				c-27.874,19.96-67.25,26.254-84.017,28.098c0.638,3.06,3.35,5.36,6.599,5.36h73.814
				C300.525,232.013,303.544,228.994,303.544,225.271z"/>
			<path style="fill:#FFD683;" d="M303.544,202.132"/>
			<circle style="fill:#FFFFFF;" cx="233.828" cy="214.959" r="10.073"/>
			<path style="fill:#FFFFFF;" d="M292.682,210.143h-39.038c-0.534,0-0.966-0.432-0.966-0.966l0,0c0-0.534,0.433-0.966,0.966-0.966
				h39.038c0.533,0,0.966,0.432,0.966,0.966l0,0C293.648,209.711,293.216,210.143,292.682,210.143z"/>
			<path style="fill:#FFFFFF;" d="M292.682,216.691h-39.038c-0.534,0-0.966-0.433-0.966-0.966l0,0c0-0.534,0.433-0.966,0.966-0.966
				h39.038c0.533,0,0.966,0.433,0.966,0.966l0,0C293.648,216.259,293.216,216.691,292.682,216.691z"/>
			<path style="fill:#FFFFFF;" d="M282.974,223.24h-29.329c-0.534,0-0.966-0.433-0.966-0.966l0,0c0-0.534,0.433-0.966,0.966-0.966
				h29.329c0.534,0,0.966,0.432,0.966,0.966l0,0C283.94,222.807,283.508,223.24,282.974,223.24z"/>
		</g>
		<g>
			<path style="fill:#FFC27F;" d="M428.073,327.681h-73.198c-3.894,0-7.05-3.157-7.05-7.05v-20.408c0-3.894,3.157-7.05,7.05-7.05
				h73.198c3.894,0,7.05,3.157,7.05,7.05v20.408C435.123,324.524,431.967,327.681,428.073,327.681z"/>
			<path style="fill:#FFDA89;" d="M435.123,320.938v-21.024c0-2.397-1.254-4.496-3.139-5.692
				c-27.874,19.96-67.25,26.254-84.017,28.098c0.638,3.06,3.35,5.359,6.599,5.359h73.814
				C432.105,327.681,435.123,324.662,435.123,320.938z"/>
			<path style="fill:#FFD683;" d="M435.123,297.8"/>
			<circle style="fill:#FFFFFF;" cx="365.408" cy="310.626" r="10.073"/>
			<path style="fill:#FFFFFF;" d="M424.262,305.811h-39.038c-0.533,0-0.966-0.433-0.966-0.966l0,0c0-0.534,0.433-0.966,0.966-0.966
				h39.038c0.534,0,0.966,0.433,0.966,0.966l0,0C425.228,305.378,424.795,305.811,424.262,305.811z"/>
			<path style="fill:#FFFFFF;" d="M424.262,312.359h-39.038c-0.533,0-0.966-0.433-0.966-0.966l0,0c0-0.534,0.433-0.966,0.966-0.966
				h39.038c0.534,0,0.966,0.432,0.966,0.966l0,0C425.228,311.926,424.795,312.359,424.262,312.359z"/>
			<path style="fill:#FFFFFF;" d="M414.553,318.907h-29.33c-0.533,0-0.966-0.433-0.966-0.966l0,0c0-0.534,0.433-0.966,0.966-0.966
				h29.33c0.534,0,0.966,0.433,0.966,0.966l0,0C415.519,318.474,415.087,318.907,414.553,318.907z"/>
		</g>
		<g>
			<g>
				<g>
					<g>
						<path style="fill:#B978BE;" d="M327.334,375.863h-70.39c-4.669,0-8.455-3.785-8.455-8.455v-69.806
							c0-4.669,3.785-8.455,8.455-8.455h70.39c4.669,0,8.455,3.785,8.455,8.455v69.806
							C335.789,372.077,332.003,375.863,327.334,375.863z"/>
					</g>
					<g>
						<path style="fill:#C882CD;" d="M329.046,375.863c3.724,0,6.743-3.019,6.743-6.743v-73.23c0-2.75-1.649-5.111-4.01-6.16
							c-30.389,47.236-63.565,69.376-83.289,79.135v0.255c0,3.724,3.019,6.743,6.743,6.743H329.046z"/>
					</g>
				</g>
			</g>
			<g>
				<g>
					<path style="fill:#FFFFFF;" d="M266.456,337.782c-0.404-0.189-0.727-0.478-0.971-0.864c-0.244-0.386-0.365-0.8-0.365-1.24
						c0-0.464,0.137-0.897,0.41-1.302c0.273-0.404,0.678-0.718,1.213-0.945l14.513-6.009c0.142-0.047,0.25-0.071,0.321-0.071
						c0.392,0,0.754,0.223,1.088,0.669c0.332,0.446,0.499,0.907,0.499,1.382c0,0.583-0.262,0.981-0.785,1.194l-12.569,5.099
						l12.605,5.331c0.404,0.167,0.606,0.535,0.606,1.106c0,0.487-0.142,0.956-0.428,1.408c-0.285,0.452-0.606,0.677-0.962,0.677
						c-0.096,0-0.196-0.018-0.304-0.052L266.456,337.782z"/>
					<path style="fill:#FFFFFF;" d="M287.896,346.608c-0.327-0.273-0.49-0.636-0.49-1.088c0-0.225,0.054-0.529,0.161-0.909
						l8.273-24.497c0.131-0.44,0.339-0.785,0.623-1.034c0.286-0.25,0.6-0.374,0.946-0.374c0.427,0,0.802,0.139,1.123,0.418
						c0.321,0.28,0.481,0.651,0.481,1.115c0,0.25-0.054,0.546-0.16,0.892l-8.38,24.8c-0.25,0.724-0.737,1.087-1.462,1.087
						C288.595,347.017,288.223,346.881,287.896,346.608z"/>
					<path style="fill:#FFFFFF;" d="M303.738,344.218c-0.357,0-0.681-0.225-0.972-0.677c-0.291-0.452-0.437-0.921-0.437-1.408
						c0-0.571,0.202-0.939,0.606-1.106l12.606-5.331l-12.552-5.099c-0.535-0.214-0.802-0.612-0.802-1.194
						c0-0.475,0.167-0.936,0.5-1.382c0.333-0.446,0.695-0.669,1.087-0.669c0.071,0,0.179,0.025,0.321,0.071l14.513,6.009
						c0.548,0.227,0.954,0.541,1.222,0.945c0.267,0.405,0.401,0.838,0.401,1.302c0,0.44-0.119,0.856-0.356,1.248
						c-0.238,0.392-0.565,0.678-0.981,0.856l-14.852,6.384C303.934,344.2,303.832,344.218,303.738,344.218z"/>
				</g>
			</g>
		</g>
		<g>
			<path style="fill:#E7E7E7;" d="M247.248,12.71h-22.941c-1.66,0-3.006,1.346-3.006,3.006v37.136c0,1.66,1.346,3.006,3.006,3.006
				h28.182c1.66,0,3.006-1.346,3.006-3.006V20.58L247.248,12.71z"/>
			<path style="fill:#C5C5C5;" d="M247.248,12.71l8.247,7.87h-6.766c-0.818,0-1.482-0.663-1.482-1.482V12.71z"/>
			<path style="fill:#4CA3E9;" d="M248.214,43.66h-19.631c-0.268,0-0.486-0.218-0.486-0.486l0,0c0-0.268,0.217-0.486,0.486-0.486
				h19.631c0.268,0,0.486,0.218,0.486,0.486l0,0C248.7,43.442,248.482,43.66,248.214,43.66z"/>
			<path style="fill:#4CA3E9;" d="M248.214,38.282h-19.631c-0.268,0-0.486-0.218-0.486-0.486l0,0c0-0.268,0.217-0.486,0.486-0.486
				h19.631c0.268,0,0.486,0.218,0.486,0.486l0,0C248.7,38.064,248.482,38.282,248.214,38.282z"/>
			<path style="fill:#4CA3E9;" d="M248.214,32.904h-19.631c-0.268,0-0.486-0.218-0.486-0.486l0,0c0-0.268,0.217-0.486,0.486-0.486
				h19.631c0.268,0,0.486,0.218,0.486,0.486l0,0C248.7,32.686,248.482,32.904,248.214,32.904z"/>
			<path style="fill:#4CA3E9;" d="M248.214,27.526h-19.631c-0.268,0-0.486-0.218-0.486-0.486l0,0c0-0.268,0.217-0.486,0.486-0.486
				h19.631c0.268,0,0.486,0.218,0.486,0.486l0,0C248.7,27.309,248.482,27.526,248.214,27.526z"/>
			<path style="fill:#4CA3E9;" d="M243.332,48.41h-14.749c-0.268,0-0.486-0.218-0.486-0.486l0,0c0-0.268,0.217-0.486,0.486-0.486
				h14.749c0.268,0,0.486,0.218,0.486,0.486l0,0C243.818,48.193,243.6,48.41,243.332,48.41z"/>
		</g>
		<path style="fill:#FFCA84;" d="M248.726,36.446l-3.182,3.358l-26.52,0.07c-2.064,0.005-3.733,1.683-3.728,3.747l0.073,27.443
			c0.005,2.064,1.683,3.733,3.747,3.728l41.669-0.11c2.064-0.005,3.733-1.683,3.728-3.747l-0.074-28.055l-0.008-3.125l-0.005-1.932
			c-0.003-1.135-0.926-2.053-2.06-2.05l-12.152,0.032C249.65,35.806,249.113,36.038,248.726,36.446z"/>
		<path style="fill:#4CA3E9;" d="M270.092,61.094h-5.632v-9.899h5.632c1.334,0,2.415,1.081,2.415,2.415v5.069
			C272.507,60.013,271.426,61.094,270.092,61.094z"/>
		<path style="fill:#4CA3E9;" d="M363.801,107.927v5.632h-9.899v-5.632c0-1.334,1.081-2.415,2.415-2.415h5.069
			C362.72,105.512,363.801,106.593,363.801,107.927z"/>
		<path style="fill:none;stroke:#4CA3E9;stroke-miterlimit:10;" d="M268.484,56.144h75.15c8.405,0,15.218,6.813,15.218,15.218
			v42.196"/>
		<path style="fill:#4CA3E9;" d="M467.031,160.176h-5.632v-9.899h5.632c1.334,0,2.415,1.081,2.415,2.415v5.069
			C469.446,159.095,468.365,160.176,467.031,160.176z"/>
		<path style="fill:#4CA3E9;" d="M502.846,361.992v5.632h-9.899v-5.632c0-1.334,1.081-2.415,2.415-2.415h5.069
			C501.765,359.578,502.846,360.659,502.846,361.992z"/>
		<path style="fill:none;stroke:#4CA3E9;stroke-miterlimit:10;" d="M465.423,155.226h17.255c8.405,0,15.218,6.813,15.218,15.218
			v197.18"/>
		<g>
			<g>
				<g>
					<path style="fill:#FF8369;" d="M216.132,413.464h-24.905c-1.331,0-2.41-1.079-2.41-2.41v-24.706c0-1.331,1.079-2.41,2.41-2.41
						h24.905c1.331,0,2.41,1.079,2.41,2.41v24.706C218.542,412.385,217.463,413.464,216.132,413.464z"/>
					<path style="fill:#FF976E;" d="M216.246,413.464c1.268,0,2.296-1.028,2.296-2.296v-24.934c0-0.936-0.561-1.74-1.365-2.098
						c-10.347,16.084-21.643,23.622-28.359,26.945v0.087c0,1.268,1.028,2.296,2.296,2.296H216.246z"/>
				</g>
				<g>
					<path style="fill:#FFFFFF;" d="M195.556,404.913h8.083c0.66,0,1.05-0.739,0.679-1.284l-4.042-5.948
						c-0.326-0.48-1.033-0.48-1.359,0l-4.042,5.948C194.506,404.174,194.897,404.913,195.556,404.913z"/>
					<path style="fill:#FFFFFF;" d="M203.143,404.913h8.083c0.659,0,1.05-0.739,0.679-1.284l-4.042-5.948
						c-0.326-0.48-1.033-0.48-1.359,0l-4.042,5.948C202.093,404.174,202.483,404.913,203.143,404.913z"/>
					<circle style="fill:#FFFFFF;" cx="203.304" cy="394.042" r="1.552"/>
				</g>
			</g>
			<path style="fill:#FFCA84;" d="M212.501,400.654l-3.182,3.358l-26.52,0.07c-2.064,0.005-3.733,1.683-3.727,3.747l0.073,27.443
				c0.005,2.064,1.683,3.733,3.747,3.728l41.669-0.11c2.064-0.005,3.733-1.683,3.727-3.747l-0.074-28.055l-0.008-3.125l-0.005-1.932
				c-0.003-1.135-0.926-2.053-2.061-2.05l-12.152,0.032C213.425,400.014,212.888,400.246,212.501,400.654z"/>
			<g>
				<path style="fill:#4CA3E9;" d="M233.868,417.644h-5.632v9.899h5.632c1.334,0,2.415-1.081,2.415-2.415v-5.069
					C236.282,418.725,235.201,417.644,233.868,417.644z"/>
				<path style="fill:#4CA3E9;" d="M397.504,361.402v-5.632h-9.899v5.632c0,1.334,1.081,2.415,2.415,2.415h5.069
					C396.423,363.816,397.504,362.735,397.504,361.402z"/>
				<path style="fill:none;stroke:#4CA3E9;stroke-miterlimit:10;" d="M232.259,422.593h145.078c8.405,0,15.218-6.813,15.218-15.218
					V355.77"/>
			</g>
		</g>
		<g>
			<path style="fill:#4CA3E9;" d="M74.168,59.342v-5.632H64.27v5.632c0,1.334,1.081,2.415,2.415,2.415h5.069
				C73.087,61.757,74.168,60.676,74.168,59.342z"/>
			<path style="fill:#4CA3E9;" d="M163.185,107.927v5.632h9.899v-5.632c0-1.334-1.081-2.415-2.415-2.415H165.6
				C164.266,105.512,163.185,106.593,163.185,107.927z"/>
			<path style="fill:none;stroke:#4CA3E9;stroke-miterlimit:10;" d="M69.219,57.734v12.575c0,8.405,6.813,15.218,15.218,15.218
				h69.767c7.694,0,13.93,6.237,13.93,13.93v10.963"/>
		</g>
		<g>
			<path style="fill:#E7E7E7;" d="M375.405,148.284h-44.697c-3.235,0-5.857,2.622-5.857,5.857v72.353
				c0,3.235,2.622,5.857,5.857,5.857h54.908c3.235,0,5.857-2.622,5.857-5.857v-62.875L375.405,148.284z"/>
			<path style="fill:#FFFFFF;" d="M375.405,145.516h-44.697c-3.235,0-5.857,2.622-5.857,5.857v72.353
				c0,3.235,2.622,5.857,5.857,5.857h54.908c3.235,0,5.857-2.622,5.857-5.857V160.85L375.405,145.516z"/>
			<path style="fill:#E7E7E7;" d="M375.405,145.516l16.069,15.334h-13.181c-1.595,0-2.887-1.293-2.887-2.887V145.516z"/>
			<path style="fill:#4CA3E9;" d="M377.287,205.816h-38.248c-0.523,0-0.947-0.424-0.947-0.947l0,0c0-0.523,0.424-0.947,0.947-0.947
				h38.248c0.523,0,0.947,0.424,0.947,0.947l0,0C378.234,205.392,377.81,205.816,377.287,205.816z"/>
			<path style="fill:#4CA3E9;" d="M377.287,195.339h-38.248c-0.523,0-0.947-0.424-0.947-0.947l0,0c0-0.523,0.424-0.947,0.947-0.947
				h38.248c0.523,0,0.947,0.424,0.947,0.947l0,0C378.234,194.915,377.81,195.339,377.287,195.339z"/>
			<path style="fill:#4CA3E9;" d="M377.287,184.861h-38.248c-0.523,0-0.947-0.424-0.947-0.947l0,0c0-0.523,0.424-0.947,0.947-0.947
				h38.248c0.523,0,0.947,0.424,0.947,0.947l0,0C378.234,184.437,377.81,184.861,377.287,184.861z"/>
			<path style="fill:#4CA3E9;" d="M377.287,174.383h-38.248c-0.523,0-0.947-0.424-0.947-0.947l0,0c0-0.523,0.424-0.947,0.947-0.947
				h38.248c0.523,0,0.947,0.424,0.947,0.947l0,0C378.234,173.959,377.81,174.383,377.287,174.383z"/>
			<path style="fill:#4CA3E9;" d="M367.775,215.072h-28.736c-0.523,0-0.947-0.424-0.947-0.947l0,0c0-0.523,0.424-0.947,0.947-0.947
				h28.736c0.523,0,0.947,0.424,0.947,0.947l0,0C368.722,214.648,368.298,215.072,367.775,215.072z"/>
			<circle style="fill:#4CA3E9;" cx="333.664" cy="154.825" r="3.681"/>
		</g>
		<g>
			<path style="fill:#E7E7E7;" d="M419.078,192.168h-44.697c-3.235,0-5.857,2.622-5.857,5.857v72.353
				c0,3.235,2.622,5.857,5.857,5.857h54.909c3.234,0,5.857-2.622,5.857-5.857v-62.875L419.078,192.168z"/>
			<path style="fill:#FFFFFF;" d="M419.078,189.401h-44.697c-3.235,0-5.857,2.622-5.857,5.857v72.353
				c0,3.234,2.622,5.857,5.857,5.857h54.909c3.234,0,5.857-2.622,5.857-5.857v-62.876L419.078,189.401z"/>
			<path style="fill:#E7E7E7;" d="M419.078,189.401l16.068,15.334h-13.181c-1.595,0-2.887-1.293-2.887-2.887V189.401z"/>
			<path style="fill:#4CA3E9;" d="M420.96,249.701h-38.248c-0.523,0-0.947-0.424-0.947-0.947l0,0c0-0.523,0.424-0.947,0.947-0.947
				h38.248c0.523,0,0.947,0.424,0.947,0.947l0,0C421.906,249.277,421.483,249.701,420.96,249.701z"/>
			<path style="fill:#4CA3E9;" d="M420.96,239.223h-38.248c-0.523,0-0.947-0.424-0.947-0.947l0,0c0-0.523,0.424-0.947,0.947-0.947
				h38.248c0.523,0,0.947,0.424,0.947,0.947l0,0C421.906,238.799,421.483,239.223,420.96,239.223z"/>
			<path style="fill:#4CA3E9;" d="M420.96,228.745h-38.248c-0.523,0-0.947-0.424-0.947-0.947l0,0c0-0.523,0.424-0.947,0.947-0.947
				h38.248c0.523,0,0.947,0.424,0.947,0.947l0,0C421.906,228.322,421.483,228.745,420.96,228.745z"/>
			<path style="fill:#4CA3E9;" d="M420.96,218.268h-38.248c-0.523,0-0.947-0.424-0.947-0.946l0,0c0-0.523,0.424-0.947,0.947-0.947
				h38.248c0.523,0,0.947,0.424,0.947,0.947l0,0C421.906,217.844,421.483,218.268,420.96,218.268z"/>
			<path style="fill:#4CA3E9;" d="M411.448,258.956h-28.736c-0.523,0-0.947-0.424-0.947-0.947l0,0c0-0.523,0.424-0.947,0.947-0.947
				h28.736c0.523,0,0.947,0.424,0.947,0.947l0,0C412.394,258.533,411.971,258.956,411.448,258.956z"/>
			<circle style="fill:#4CA3E9;" cx="377.337" cy="198.71" r="3.681"/>
		</g>
		<g>
			<g>
				<g>
					<path style="fill:#5788DD;" d="M349.872,274.686h-22.73c-1.316,0-2.382-1.067-2.382-2.382v-22.546
						c0-1.316,1.066-2.382,2.382-2.382h22.73c1.316,0,2.382,1.067,2.382,2.382v22.546
						C352.255,273.619,351.188,274.686,349.872,274.686z"/>
					<path style="fill:#4CA3E9;" d="M350.131,274.686c1.173,0,2.124-0.951,2.124-2.124v-23.063c0-0.866-0.519-1.61-1.263-1.94
						c-9.571,14.877-20.019,21.85-26.231,24.923v0.08c0,1.173,0.951,2.124,2.123,2.124H350.131z"/>
				</g>
			</g>
			<path style="fill:#FFFFFF;" d="M338.078,264.264l3.157-3.157c0.142-0.142,0.351-0.181,0.542-0.119
				c1.456,0.472,3.129,0.159,4.292-0.94c0.868-0.82,1.313-1.91,1.339-3.008c0.012-0.477-0.55-0.734-0.888-0.397l-1.433,1.433
				c-0.366,0.366-0.694,0.365-0.897,0.162l-2.375-2.375c-0.203-0.203-0.203-0.532,0-0.735l1.594-1.594
				c0.336-0.336,0.082-0.9-0.392-0.889c-1.062,0.025-2.115,0.441-2.925,1.251c-1.186,1.186-1.53,2.893-1.036,4.384
				c0.064,0.193,0.025,0.404-0.119,0.548l-3.157,3.157c-0.142,0.142-0.351,0.181-0.542,0.119c-1.456-0.472-3.129-0.159-4.292,0.94
				c-0.868,0.82-1.313,1.91-1.339,3.008c-0.012,0.477,0.551,0.734,0.888,0.396l1.595-1.595c0.203-0.203,0.532-0.203,0.735,0
				l2.375,2.375c0.203,0.203,0.203,0.532,0,0.735l-1.594,1.594c-0.336,0.336-0.082,0.9,0.392,0.889
				c1.062-0.025,2.115-0.441,2.925-1.251c1.186-1.186,1.53-2.893,1.036-4.384C337.895,264.619,337.934,264.408,338.078,264.264z"/>
		</g>
		<g>
			<path style="fill:none;stroke:#FFC27F;stroke-linecap:round;stroke-miterlimit:10;" d="M414.393,190.816v9.764
				c0,1.934-0.693,4.639-4.325,4.639c-3.798,0-4.384-2.705-4.384-4.639v-14.883"/>
			<path style="fill:none;stroke:#FFC27F;stroke-linecap:round;stroke-miterlimit:10;" d="M414.393,197.825v-9.724
				c0-1.328-0.997-2.973-2.973-2.973c-2.006,0-2.973,1.645-2.973,2.973v7.62"/>
			<path style="fill:none;stroke:#FFC27F;stroke-linecap:round;stroke-miterlimit:10;" d="M408.448,192.434v6.987
				c0,0.738-0.123,2.474,1.536,2.474c1.848,0,1.706-1.736,1.706-2.474v-8.605"/>
		</g>
		<g>
			<path style="fill:none;stroke:#FFC27F;stroke-linecap:round;stroke-miterlimit:10;" d="M370.284,145.458v9.764
				c0,1.934-0.693,4.639-4.325,4.639c-3.798,0-4.384-2.705-4.384-4.639v-14.883"/>
			<path style="fill:none;stroke:#FFC27F;stroke-linecap:round;stroke-miterlimit:10;" d="M370.284,152.467v-9.724
				c0-1.328-0.998-2.973-2.973-2.973c-2.006,0-2.973,1.645-2.973,2.973v7.62"/>
			<path style="fill:none;stroke:#FFC27F;stroke-linecap:round;stroke-miterlimit:10;" d="M364.338,147.075v6.987
				c0,0.738-0.123,2.474,1.536,2.474c1.848,0,1.706-1.736,1.706-2.474v-8.605"/>
		</g>
		<path style="fill:#4CA3E9;" d="M437.191,57.808c0.209,0,13.876,0,13.876,0h31.692h12.025c7.524,0,13.624-6.1,13.624-13.624
			s-6.1-13.624-13.624-13.624c-0.113,0-0.222,0.014-0.334,0.017c-2.075-13.34-13.611-23.549-27.533-23.549
			c-10.954,0-20.428,6.323-24.981,15.517c-1.513-0.414-3.099-0.654-4.744-0.654c-9.918,0-17.959,8.041-17.959,17.959
			S427.272,57.808,437.191,57.808z"/>
		<g>
			<path style="fill:#FFFFFF;" d="M473.802,42.024l-17.325-0.016c-0.608-0.001-0.984-0.665-0.67-1.186l8.675-14.418
				c0.304-0.506,1.038-0.505,1.342,0.001l8.649,14.434C474.787,41.361,474.41,42.025,473.802,42.024z"/>
			<path style="fill:#FFFFFF;" d="M464.493,47.276l1.276,0.001c0.778,0.001,1.409-0.629,1.41-1.407l0.011-12.025
				c0.001-0.778-0.629-1.409-1.407-1.41l-1.276-0.001c-0.778-0.001-1.409,0.629-1.41,1.407l-0.011,12.025
				C463.085,46.644,463.715,47.275,464.493,47.276z"/>
		</g>
		<path style="fill:#4CA3E9;" d="M49.595,432.816c0.208,0,13.876,0,13.876,0h31.691h12.025c7.524,0,13.624-6.1,13.624-13.624
			c0-7.524-6.1-13.624-13.624-13.624c-0.113,0-0.222,0.014-0.334,0.017c-2.076-13.34-13.611-23.549-27.533-23.549
			c-10.954,0-20.428,6.323-24.982,15.517c-1.513-0.414-3.099-0.654-4.744-0.654c-9.919,0-17.959,8.041-17.959,17.959
			C31.636,424.775,39.676,432.816,49.595,432.816z"/>
		<g>
			<path style="fill:#FFFFFF;" d="M68.891,406.285l17.325,0.016c0.608,0.001,0.984,0.665,0.67,1.186l-8.675,14.418
				c-0.304,0.506-1.038,0.505-1.342-0.001l-8.649-14.434C67.906,406.948,68.282,406.285,68.891,406.285z"/>
			<path style="fill:#FFFFFF;" d="M78.2,401.033l-1.276-0.001c-0.778-0.001-1.409,0.629-1.41,1.407l-0.011,12.025
				c-0.001,0.778,0.629,1.409,1.407,1.41l1.276,0.001c0.778,0.001,1.409-0.629,1.41-1.407l0.011-12.025
				C79.607,401.665,78.978,401.034,78.2,401.033z"/>
		</g>
		<g>
			<g>
				<path style="fill:#FF8369;" d="M131.524,214.607h-70.39c-4.669,0-8.455-3.785-8.455-8.455v-69.806
					c0-4.669,3.785-8.455,8.455-8.455h70.39c4.669,0,8.455,3.785,8.455,8.455v69.806
					C139.978,210.822,136.193,214.607,131.524,214.607z"/>
				<path style="fill:#FF976E;" d="M133.236,214.607c3.724,0,6.742-3.019,6.742-6.742v-73.23c0-2.75-1.649-5.111-4.01-6.16
					c-30.389,47.236-63.565,69.376-83.289,79.135v0.255c0,3.724,3.019,6.742,6.743,6.742H133.236z"/>
				<path style="fill:none;stroke:#FF976E;stroke-width:2;stroke-miterlimit:10;" d="M136.887,219.935H55.771
					c-4.669,0-8.455-3.785-8.455-8.455v-80.461c0-4.669,3.785-8.455,8.455-8.455h81.117c4.669,0,8.455,3.785,8.455,8.455v80.461
					C145.342,216.15,141.557,219.935,136.887,219.935z"/>
			</g>
			<g>
				<path style="fill:#FFFFFF;" d="M72.471,189.493h23.74c1.937,0,3.084-2.169,1.995-3.772l-11.87-17.468
					c-0.957-1.409-3.033-1.409-3.99,0l-11.87,17.468C69.387,187.324,70.534,189.493,72.471,189.493z"/>
				<path style="fill:#FFFFFF;" d="M94.752,189.493h23.74c1.937,0,3.084-2.169,1.995-3.772l-11.87-17.468
					c-0.957-1.409-3.033-1.409-3.99,0l-11.87,17.468C91.668,187.324,92.815,189.493,94.752,189.493z"/>
				<circle style="fill:#FFFFFF;" cx="95.225" cy="157.567" r="4.557"/>
			</g>
		</g>
		<g>
			<path style="fill:#FFFFFF;" d="M156.897,208.162l-17.852,17.819c-0.627,0.626-1.697,0.328-1.911-0.531l-5.912-23.774
				c-0.207-0.834,0.549-1.589,1.383-1.38l23.764,5.955C157.228,206.466,157.524,207.536,156.897,208.162z"/>
			<path style="fill:#FFFFFF;" d="M156.979,228.319l2.224-2.219c0.55-0.55,0.551-1.441,0.002-1.992l-13.276-13.3
				c-0.55-0.55-1.441-0.551-1.992-0.002l-2.223,2.219c-0.55,0.55-0.551,1.441-0.002,1.992l13.276,13.3
				C155.537,228.868,156.428,228.869,156.979,228.319z"/>
		</g>
		<circle style="fill:#4CA3E9;" cx="332.812" cy="422.593" r="13.744"/>
		<g>
			<path style="fill:#FFFFFF;" d="M336.273,415.392c0-0.001,0-0.001,0-0.002c-0.079-0.187-0.178-0.36-0.286-0.526
				c-0.024-0.037-0.051-0.071-0.076-0.107c-0.095-0.133-0.198-0.258-0.309-0.375c-0.028-0.029-0.055-0.059-0.084-0.087
				c-0.287-0.278-0.618-0.504-0.984-0.664c-0.042-0.019-0.086-0.033-0.129-0.05c-0.144-0.056-0.291-0.102-0.443-0.138
				c-0.055-0.013-0.108-0.027-0.164-0.037c-0.198-0.036-0.4-0.061-0.607-0.061h-0.756c-0.207,0-0.409,0.025-0.607,0.061
				c-0.056,0.01-0.109,0.024-0.164,0.037c-0.152,0.036-0.299,0.082-0.443,0.138c-0.043,0.017-0.087,0.031-0.129,0.05
				c-0.366,0.16-0.698,0.385-0.985,0.664c-0.029,0.028-0.055,0.057-0.083,0.086c-0.112,0.117-0.215,0.242-0.31,0.375
				c-0.025,0.036-0.052,0.07-0.076,0.106c-0.108,0.166-0.207,0.339-0.286,0.526c0,0.001,0,0.001,0,0.002
				c-0.169,0.4-0.263,0.839-0.263,1.3v2.024c0,0.326,0.264,0.59,0.591,0.59c0.326,0,0.59-0.264,0.59-0.59v-2.024
				c0-0.304,0.064-0.592,0.177-0.855c0.073-0.17,0.172-0.321,0.282-0.463c0.033-0.042,0.066-0.083,0.101-0.123
				c0.12-0.133,0.249-0.256,0.397-0.355c0.019-0.013,0.041-0.02,0.06-0.032c0.139-0.087,0.288-0.155,0.444-0.209
				c0.047-0.016,0.094-0.031,0.142-0.044c0.181-0.049,0.368-0.083,0.562-0.083h0.756c0.194,0,0.381,0.034,0.562,0.083
				c0.048,0.013,0.095,0.028,0.142,0.044c0.156,0.054,0.305,0.122,0.444,0.209c0.019,0.012,0.041,0.02,0.06,0.033
				c0.147,0.099,0.277,0.222,0.397,0.355c0.036,0.039,0.069,0.081,0.101,0.123c0.109,0.142,0.209,0.293,0.282,0.463
				c0.113,0.262,0.177,0.551,0.177,0.855v2.024c0,0.326,0.264,0.59,0.59,0.59c0.326,0,0.59-0.264,0.59-0.59v-2.024
				C336.537,416.231,336.443,415.791,336.273,415.392z"/>
			<path style="fill:#FFFFFF;" d="M332.812,426.972c-0.326,0-0.59-0.264-0.59-0.59v-2.079c0-0.326,0.264-0.59,0.59-0.59
				c0.327,0,0.59,0.264,0.59,0.59v2.079C333.402,426.708,333.138,426.972,332.812,426.972z"/>
			<path style="fill:#FFFFFF;" d="M336.104,430.947h-6.584c-1.628,0-2.953-1.325-2.953-2.953v-6.583
				c0-1.628,1.325-2.952,2.953-2.952h6.584c1.628,0,2.953,1.325,2.953,2.952v6.583C339.057,429.622,337.732,430.947,336.104,430.947
				z M329.52,419.639c-0.977,0-1.771,0.795-1.771,1.772v6.583c0,0.977,0.795,1.771,1.771,1.771h6.584
				c0.977,0,1.772-0.795,1.772-1.771v-6.583c0-0.977-0.795-1.772-1.772-1.772H329.52z"/>
			<circle style="fill:#FFFFFF;" cx="332.812" cy="424.183" r="1.249"/>
		</g>
		<circle style="fill:#4CA3E9;" cx="353.902" cy="59.81" r="13.744"/>
		<g>
			<path style="fill:#FFFFFF;" d="M357.363,52.608c0-0.001,0-0.001,0-0.002c-0.079-0.187-0.178-0.36-0.286-0.526
				c-0.024-0.037-0.051-0.071-0.076-0.107c-0.095-0.133-0.198-0.258-0.31-0.375c-0.028-0.029-0.055-0.059-0.084-0.087
				c-0.287-0.278-0.618-0.504-0.984-0.664c-0.042-0.019-0.086-0.033-0.129-0.05c-0.144-0.056-0.291-0.102-0.443-0.138
				c-0.055-0.013-0.108-0.027-0.164-0.037c-0.198-0.036-0.4-0.061-0.607-0.061h-0.756c-0.207,0-0.408,0.025-0.607,0.061
				c-0.056,0.01-0.109,0.024-0.164,0.037c-0.152,0.036-0.299,0.082-0.443,0.138c-0.043,0.017-0.087,0.031-0.129,0.05
				c-0.366,0.16-0.698,0.385-0.985,0.664c-0.029,0.028-0.055,0.057-0.083,0.086c-0.112,0.117-0.215,0.242-0.31,0.376
				c-0.025,0.036-0.052,0.07-0.076,0.106c-0.108,0.166-0.207,0.339-0.286,0.526c0,0.001,0,0.001,0,0.002
				c-0.169,0.4-0.263,0.839-0.263,1.3v2.024c0,0.326,0.264,0.59,0.59,0.59c0.326,0,0.59-0.264,0.59-0.59v-2.024
				c0-0.304,0.064-0.592,0.178-0.855c0.073-0.17,0.173-0.321,0.282-0.463c0.033-0.042,0.066-0.083,0.101-0.123
				c0.12-0.133,0.249-0.256,0.397-0.355c0.019-0.013,0.041-0.02,0.06-0.032c0.139-0.087,0.288-0.155,0.444-0.209
				c0.047-0.016,0.094-0.031,0.142-0.044c0.181-0.049,0.368-0.083,0.562-0.083h0.756c0.194,0,0.381,0.035,0.562,0.083
				c0.048,0.013,0.095,0.028,0.142,0.044c0.156,0.054,0.305,0.122,0.444,0.209c0.019,0.012,0.041,0.02,0.06,0.033
				c0.147,0.099,0.277,0.222,0.397,0.355c0.036,0.039,0.069,0.081,0.101,0.123c0.109,0.142,0.209,0.293,0.282,0.463
				c0.113,0.262,0.177,0.551,0.177,0.855v2.024c0,0.326,0.264,0.59,0.59,0.59c0.327,0,0.591-0.264,0.591-0.59v-2.024
				C357.626,53.448,357.532,53.008,357.363,52.608z"/>
			<path style="fill:#FFFFFF;" d="M353.902,64.189c-0.326,0-0.591-0.264-0.591-0.59V61.52c0-0.326,0.264-0.59,0.591-0.59
				c0.326,0,0.59,0.264,0.59,0.59v2.079C354.492,63.925,354.228,64.189,353.902,64.189z"/>
			<path style="fill:#FFFFFF;" d="M357.194,68.164h-6.584c-1.628,0-2.953-1.325-2.953-2.952v-6.583c0-1.628,1.325-2.953,2.953-2.953
				h6.584c1.628,0,2.952,1.325,2.952,2.953v6.583C360.146,66.839,358.822,68.164,357.194,68.164z M350.61,56.856
				c-0.977,0-1.772,0.795-1.772,1.772v6.583c0,0.977,0.795,1.771,1.772,1.771h6.584c0.977,0,1.772-0.795,1.772-1.771v-6.583
				c0-0.977-0.795-1.772-1.772-1.772H350.61z"/>
			<circle style="fill:#FFFFFF;" cx="353.902" cy="61.4" r="1.249"/>
		</g>
		<g>
			<path style="fill:#D7D7D7;" d="M513.042,407.143h-30.438c-1.578,0-2.858-1.279-2.858-2.858v-17.292
				c0-1.578,1.279-2.857,2.857-2.857h30.438c1.578,0,2.857,1.279,2.857,2.857v17.292C515.9,405.864,514.62,407.143,513.042,407.143z
				"/>
			<path style="fill:#E7E7E7;" d="M513.811,384.136h-31.976c-0.885,0-1.637,0.553-1.941,1.33l16.685,15.207
				c0.748,0.583,1.739,0.583,2.488,0l16.685-15.207C515.448,384.689,514.696,384.136,513.811,384.136z"/>
			<path style="fill:#E7E7E7;" d="M513.811,384.136h-31.976c-0.885,0-1.637,0.553-1.941,1.33l16.685,12.998
				c0.748,0.583,1.739,0.583,2.488,0l16.685-12.998C515.448,384.689,514.696,384.136,513.811,384.136z"/>
		</g>
		<g>
			<path style="fill:#FFFFFF;" d="M432.266,167.126h-27.564c-1.578,0-2.858-1.279-2.858-2.858v-15.463
				c0-1.578,1.279-2.857,2.857-2.857h27.565c1.578,0,2.857,1.279,2.857,2.857v15.463
				C435.123,165.846,433.844,167.126,432.266,167.126z"/>
			<path style="fill:#E7E7E7;" d="M433.201,145.948h-29.435c-0.815,0-1.507,0.508-1.787,1.224l15.359,13.998
				c0.689,0.537,1.601,0.537,2.29,0l15.359-13.998C434.708,146.456,434.016,145.948,433.201,145.948z"/>
			<path style="fill:#FFFFFF;" d="M433.201,145.948h-29.435c-0.815,0-1.507,0.508-1.787,1.224l15.359,11.965
				c0.689,0.537,1.601,0.537,2.29,0l15.359-11.965C434.708,146.456,434.016,145.948,433.201,145.948z"/>
		</g>
		<path style="fill:#FFCA84;" d="M506.718,400.61l-3.182,3.358l-26.52,0.07c-2.064,0.006-3.733,1.683-3.728,3.747l0.073,27.443
			c0.005,2.064,1.683,3.733,3.747,3.727l41.669-0.11c2.064-0.005,3.733-1.683,3.728-3.747l-0.074-28.055l-0.008-3.125l-0.005-1.932
			c-0.003-1.135-0.925-2.053-2.061-2.05l-12.152,0.032C507.642,399.97,507.105,400.201,506.718,400.61z"/>
		<path style="fill:#2F507F;" d="M88.533,53.711H49.906c-3.364,0-6.092-2.727-6.092-6.092V31.151c0-3.364,2.727-6.092,6.092-6.092
			h38.627c3.364,0,6.091,2.727,6.091,6.092v16.468C94.624,50.983,91.897,53.711,88.533,53.711z"/>
		<g>
			<path style="fill:#FF8369;" d="M50.884,34.409h-1.055c-0.795,0-1.439-0.644-1.439-1.439v-0.269c0-0.795,0.644-1.439,1.439-1.439
				h1.055c0.795,0,1.439,0.644,1.439,1.439v0.269C52.323,33.765,51.679,34.409,50.884,34.409z"/>
			<path style="fill:#FF8369;" d="M66.61,34.409h-1.055c-0.795,0-1.439-0.644-1.439-1.439v-0.269c0-0.795,0.644-1.439,1.439-1.439
				h1.055c0.795,0,1.439,0.644,1.439,1.439v0.269C68.049,33.765,67.405,34.409,66.61,34.409z"/>
			<path style="fill:#FFC27F;" d="M60.154,34.409h-3.87c-0.795,0-1.439-0.644-1.439-1.439v-0.269c0-0.795,0.644-1.439,1.439-1.439
				h3.87c0.795,0,1.439,0.644,1.439,1.439v0.269C61.593,33.765,60.949,34.409,60.154,34.409z"/>
			<path style="fill:#FF8369;" d="M87.028,34.409H73.324c-0.795,0-1.439-0.644-1.439-1.439v-0.269c0-0.795,0.644-1.439,1.439-1.439
				h13.704c0.795,0,1.439,0.644,1.439,1.439v0.269C88.467,33.765,87.823,34.409,87.028,34.409z"/>
			<path style="fill:#FFC27F;" d="M50.884,47.507h-1.055c-0.795,0-1.439-0.644-1.439-1.439V45.8c0-0.795,0.644-1.439,1.439-1.439
				h1.055c0.795,0,1.439,0.644,1.439,1.439v0.269C52.323,46.863,51.679,47.507,50.884,47.507z"/>
			<path style="fill:#FFC27F;" d="M88.609,47.507h-1.055c-0.795,0-1.439-0.644-1.439-1.439V45.8c0-0.795,0.644-1.439,1.439-1.439
				h1.055c0.795,0,1.439,0.644,1.439,1.439v0.269C90.049,46.863,89.404,47.507,88.609,47.507z"/>
			<path style="fill:#FF8369;" d="M60.154,47.507h-3.87c-0.795,0-1.439-0.644-1.439-1.439V45.8c0-0.795,0.644-1.439,1.439-1.439
				h3.87c0.795,0,1.439,0.644,1.439,1.439v0.269C61.593,46.863,60.949,47.507,60.154,47.507z"/>
			<path style="fill:#FFC27F;" d="M81.37,47.507h-11.5c-0.795,0-1.439-0.644-1.439-1.439V45.8c0-0.795,0.644-1.439,1.439-1.439h11.5
				c0.795,0,1.439,0.644,1.439,1.439v0.269C82.809,46.863,82.164,47.507,81.37,47.507z"/>
			<path style="fill:#FFC27F;" d="M50.884,40.895h-1.055c-0.795,0-1.439-0.644-1.439-1.439v-0.269c0-0.795,0.644-1.439,1.439-1.439
				h1.055c0.795,0,1.439,0.644,1.439,1.439v0.269C52.323,40.25,51.679,40.895,50.884,40.895z"/>
			<path style="fill:#FF8369;" d="M56.988,40.895h-1.055c-0.795,0-1.439-0.644-1.439-1.439v-0.269c0-0.795,0.644-1.439,1.439-1.439
				h1.055c0.795,0,1.439,0.644,1.439,1.439v0.269C58.427,40.25,57.783,40.895,56.988,40.895z"/>
			<path style="fill:#FFC27F;" d="M69.624,40.895h-6.786c-0.795,0-1.439-0.644-1.439-1.439v-0.269c0-0.795,0.644-1.439,1.439-1.439
				h6.786c0.795,0,1.439,0.644,1.439,1.439v0.269C71.063,40.25,70.419,40.895,69.624,40.895z"/>
		</g>
		<g>
			<path style="fill:#2F507F;" d="M88.533,22.174H49.906c-3.364,0-6.092-2.727-6.092-6.092V9.024c0-3.364,2.727-6.092,6.092-6.092
				h38.627c3.364,0,6.091,2.727,6.091,6.092v7.058C94.624,19.446,91.897,22.174,88.533,22.174z"/>
			<g>
				<path style="fill:#FFC27F;" d="M50.884,17.433h-1.055c-0.795,0-1.439-0.644-1.439-1.439v-0.269c0-0.795,0.644-1.439,1.439-1.439
					h1.055c0.795,0,1.439,0.644,1.439,1.439v0.269C52.323,16.789,51.679,17.433,50.884,17.433z"/>
				<path style="fill:#FFC27F;" d="M88.609,17.433h-1.055c-0.795,0-1.439-0.644-1.439-1.439v-0.269c0-0.795,0.644-1.439,1.439-1.439
					h1.055c0.795,0,1.439,0.644,1.439,1.439v0.269C90.049,16.789,89.404,17.433,88.609,17.433z"/>
				<path style="fill:#FF8369;" d="M60.154,17.433h-3.87c-0.795,0-1.439-0.644-1.439-1.439v-0.269c0-0.795,0.644-1.439,1.439-1.439
					h3.87c0.795,0,1.439,0.644,1.439,1.439v0.269C61.593,16.789,60.949,17.433,60.154,17.433z"/>
				<path style="fill:#FFC27F;" d="M81.37,17.433h-11.5c-0.795,0-1.439-0.644-1.439-1.439v-0.269c0-0.795,0.644-1.439,1.439-1.439
					h11.5c0.795,0,1.439,0.644,1.439,1.439v0.269C82.809,16.789,82.164,17.433,81.37,17.433z"/>
				<path style="fill:#FFC27F;" d="M50.884,10.82h-1.055c-0.795,0-1.439-0.644-1.439-1.439V9.113c0-0.795,0.644-1.439,1.439-1.439
					h1.055c0.795,0,1.439,0.644,1.439,1.439v0.269C52.323,10.176,51.679,10.82,50.884,10.82z"/>
				<path style="fill:#FF8369;" d="M56.988,10.82h-1.055c-0.795,0-1.439-0.644-1.439-1.439V9.113c0-0.795,0.644-1.439,1.439-1.439
					h1.055c0.795,0,1.439,0.644,1.439,1.439v0.269C58.427,10.176,57.783,10.82,56.988,10.82z"/>
				<path style="fill:#FFC27F;" d="M69.624,10.82h-6.786c-0.795,0-1.439-0.644-1.439-1.439V9.113c0-0.795,0.644-1.439,1.439-1.439
					h6.786c0.795,0,1.439,0.644,1.439,1.439v0.269C71.063,10.176,70.419,10.82,69.624,10.82z"/>
			</g>
		</g>
	</g>
</g>
</svg>
