<svg id="Layer_5" enable-background="new 0 0 64 64" height="512" viewBox="0 0 64 64" width="512" xmlns="http://www.w3.org/2000/svg"><g><g><g><path d="m23 56h18v6h-18z" fill="#aab2bd"/></g><g><path d="m8 42v10c0 2.21 1.79 4 4 4h40c2.21 0 4-1.79 4-4v-10z" fill="#ccd1d9"/></g><g><path d="m12 42v5c0 .55.45 1 1 1h38c.55 0 1-.45 1-1v-5z" fill="#69d6f4"/></g><g><path d="m61.12 42.88c.54.54.88 1.29.88 2.12 0 1.66-1.34 3-3 3h-3v-6h3c.83 0 1.58.34 2.12.88z" fill="#f0d0b4"/></g><g><path d="m5 35c-1.66 0-3 1.34-3 3v-26c0-1.66 1.34-3 3-3h5v7 19z" fill="#f0d0b4"/></g><g><path d="m62 19v26c0-.83-.34-1.58-.88-2.12s-1.29-.88-2.12-.88h-3-4-18l3-6v-10-.26c0-1.71.82-3.26 2.12-4.37 1.64-1.39 2.86-3.25 3.46-5.37h.01 16.41c1.66 0 3 1.34 3 3z" fill="#e6e9ed"/></g><g><path d="m27 26v10l3 6h-18-4-3c-1.66 0-3-1.34-3-3v-1c0-1.66 1.34-3 3-3h5v-19h11.42c.61 2.18 1.89 4.08 3.59 5.48 1.3 1.08 1.99 2.73 1.99 4.43z" fill="#e6e9ed"/></g><g><path d="m14 32h8v6h-8z" fill="#b4dd7f"/></g><g><path d="m37 36-3 6-.55 1.11c-.28.54-.84.89-1.45.89s-1.17-.35-1.45-.89l-.55-1.11-3-6z" fill="#aab2bd"/></g><g><path d="m33 26h4v10h-10v-10h4z" fill="#ff826e"/></g><g><path d="m30.73 2.07c-4.84.54-8.85 4.36-9.59 9.18-.26 1.66-.14 3.27.28 4.75.61 2.18 1.89 4.08 3.59 5.48 1.3 1.08 1.99 2.73 1.99 4.43v.09h4 2 4v-.26c0-1.71.82-3.26 2.12-4.37 1.64-1.39 2.86-3.25 3.46-5.37h.01c.26-.95.41-1.96.41-3 0-6.49-5.62-11.67-12.27-10.93z" fill="#ffeaa7"/></g><g><path d="m37.41 11.59c.37.36.59.86.59 1.41 0 1.1-.9 2-2 2h-2.26l.14-2.13c.07-1.05.94-1.87 1.99-1.87h.13c.55 0 1.05.22 1.41.59z" fill="#fcd770"/></g><g><path d="m30.12 12.87.14 2.13h-2.26c-.55 0-1.05-.22-1.41-.59-.37-.36-.59-.86-.59-1.41 0-1.1.9-2 2-2h.13c1.05 0 1.92.82 1.99 1.87z" fill="#fcd770"/></g></g><g><circle cx="28" cy="52" r="1"/><circle cx="32" cy="52" r="1"/><circle cx="36" cy="52" r="1"/><path d="m59 15h-15.185c.111-.657.185-1.323.185-2 0-3.41-1.458-6.671-4.002-8.946-2.541-2.272-5.956-3.358-9.376-2.977-5.265.588-9.67 4.802-10.475 10.021-.204 1.325-.168 2.636.044 3.902h-9.191v-7h-6c-2.206 0-4 1.794-4 4v27c0 2.206 1.794 4 4 4h2v9c0 2.757 2.243 5 5 5h10v4h-4v2h28v-2h-4v-4h10c2.757 0 5-2.243 5-5v-3h2c2.206 0 4-1.794 4-4v-26c0-2.206-1.794-4-4-4zm0 2c1.103 0 2 .897 2 2v22.556c-.591-.344-1.268-.556-2-.556h-23.382l2.382-4.764v-9.236-1.264c0-1.334.645-2.646 1.769-3.601 1.634-1.389 2.838-3.166 3.536-5.135zm-46 26h16.382l.276.552c.446.893 1.343 1.448 2.342 1.448s1.896-.555 2.342-1.447l.276-.553h16.382v4h-38zm18.335-27h1.329l-.6 9h-.129zm4.665 11v8h-8v-8zm-.618 10-2.829 5.659c-.211.421-.895.421-1.105 0l-2.83-5.659zm-13.258-25.598c.67-4.341 4.337-7.848 8.72-8.338 2.895-.324 5.672.558 7.821 2.48 2.119 1.897 3.335 4.614 3.335 7.456 0 2.933-1.285 5.707-3.526 7.611-1.37 1.164-2.231 2.733-2.43 4.389h-1.975l.6-9h1.331c1.654 0 3-1.346 3-3s-1.346-3-3-3h-.129c-1.573 0-2.888 1.23-2.993 2.801l-.08 1.199h-1.596l-.08-1.2c-.105-1.57-1.42-2.8-2.993-2.8h-.129c-1.654 0-3 1.346-3 3s1.346 3 3 3h1.331l.6 9h-1.987c-.213-1.709-1.025-3.24-2.301-4.291-2.753-2.268-4.069-5.747-3.519-9.307zm12.678 2.598.071-1.066c.035-.524.474-.934.998-.934h.129c.551 0 1 .449 1 1s-.449 1-1 1zm-5.604 0h-1.198c-.551 0-1-.449-1-1s.449-1 1-1h.129c.524 0 .963.41.998.934zm-26.198-2c0-1.103.897-2 2-2h4v24h-4c-.728 0-1.411.195-2 .537zm0 27v-1c0-1.103.897-2 2-2h6v-19h9.696c.712 2.015 1.953 3.833 3.676 5.253 1.035.852 1.628 2.184 1.628 3.747v1 9.236l2.382 4.764h-23.382c-1.103 0-2-.897-2-2zm37 22h-16v-4h16zm12-6h-40c-1.654 0-3-1.346-3-3v-9h2v4c0 1.103.897 2 2 2h38c1.103 0 2-.897 2-2v-4h2v9c0 1.654-1.346 3-3 3zm7-8h-2v-4h2c1.103 0 2 .897 2 2s-.897 2-2 2z"/><path d="m43 19h4v2h-4z"/><path d="m49 19h10v2h-10z"/><path d="m43 23h16v2h-16z"/><path d="m43 27h16v2h-16z"/><path d="m43 31h2v2h-2z"/><path d="m47 31h12v2h-12z"/><path d="m55 35h4v2h-4z"/><path d="m43 35h10v2h-10z"/><path d="m13 39h10v-8h-10zm2-6h6v4h-6z"/><path d="m13 27h10v2h-10z"/><path d="m21 23h2v2h-2z"/><path d="m13 23h6v2h-6z"/><path d="m13 19h8v2h-8z"/></g></g></svg>